<?xml version="1.0" encoding="UTF-8"?>
<!DOCTYPE svg PUBLIC "-//W3C//DTD SVG 1.1//EN" "http://www.w3.org/Graphics/SVG/1.1/DTD/svg11.dtd">
<!-- Creator: CorelDRAW X7 -->
<svg xmlns="http://www.w3.org/2000/svg" xml:space="preserve" width="10000px" height="10000px" version="1.1" style="shape-rendering:geometricPrecision; text-rendering:geometricPrecision; image-rendering:optimizeQuality; fill-rule:evenodd; clip-rule:evenodd"
viewBox="0 0 1439 1439"
 xmlns:xlink="http://www.w3.org/1999/xlink">
 <defs>
  <style type="text/css">
   <![CDATA[
    .fil0 {fill:black}
    .fil4 {fill:#1C2699;fill-rule:nonzero}
    .fil5 {fill:#360075;fill-rule:nonzero}
    .fil1 {fill:#CCCCCC;fill-rule:nonzero}
    .fil6 {fill:#D12600;fill-rule:nonzero}
    .fil3 {fill:#FF6E00;fill-rule:nonzero}
    .fil2 {fill:#FFB219;fill-rule:nonzero}
   ]]>
  </style>
 </defs>
 <g id="Camada_x0020_1">
  <metadata id="CorelCorpID_0Corel-Layer"/>
  <rect class="fil0" width="1439" height="1439" rx="165" ry="193"/>
  <path class="fil1" d="M214 974l-7 6c-3,-4 -5,-5 -8,-5 -1,0 -2,0 -3,1 0,0 -1,1 -1,2 0,1 1,2 1,2 1,1 3,3 7,6 4,3 6,5 6,6 2,2 4,4 4,6 1,1 2,3 2,5 0,4 -2,8 -5,10 -2,3 -6,4 -10,4 -4,0 -7,-1 -9,-3 -3,-1 -5,-4 -7,-8l8 -4c2,4 5,6 8,6 1,0 3,0 4,-1 1,-1 2,-2 2,-3 0,-2 -1,-3 -2,-4 -1,-1 -2,-3 -5,-5 -5,-4 -9,-7 -10,-10 -2,-2 -3,-4 -3,-7 0,-3 2,-6 4,-9 3,-2 6,-3 10,-3 2,0 4,0 7,2 2,1 4,3 7,6z"/>
  <polygon id="1" class="fil1" points="240,966 249,966 249,980 255,980 255,988 249,988 249,1016 240,1016 240,988 236,988 236,980 240,980 "/>
  <path id="2" class="fil1" d="M303 980l9 0 0 36 -9 0 0 -4c-1,2 -3,3 -5,4 -2,0 -4,1 -6,1 -4,0 -8,-2 -12,-6 -3,-3 -5,-8 -5,-13 0,-6 2,-10 5,-14 3,-3 7,-5 12,-5 2,0 4,0 6,1 2,1 4,2 5,4l0 -4zm-9 7c-3,0 -5,1 -7,3 -2,2 -3,5 -3,8 0,3 1,5 3,7 2,2 4,3 7,3 3,0 5,-1 7,-3 2,-2 3,-4 3,-7 0,-3 -1,-6 -3,-8 -2,-2 -4,-3 -7,-3z"/>
  <path id="3" class="fil1" d="M374 987l-8 4c-1,-1 -3,-2 -4,-3 -1,0 -3,-1 -5,-1 -3,0 -6,1 -8,3 -2,2 -3,5 -3,8 0,3 1,6 3,8 2,1 5,2 8,2 4,0 7,-1 9,-4l7 5c-3,5 -9,8 -16,8 -6,0 -11,-2 -15,-6 -3,-4 -5,-8 -5,-13 0,-4 1,-7 2,-10 2,-3 5,-5 8,-7 3,-1 6,-2 10,-2 4,0 7,1 10,2 3,1 5,3 7,6z"/>
  <polygon id="4" class="fil1" points="399,966 408,966 408,995 421,980 433,980 417,997 435,1016 423,1016 408,999 408,1016 399,1016 "/>
  <path id="5" class="fil1" d="M475 967l10 0c5,0 9,1 12,2 2,1 4,2 5,4 2,3 2,5 2,8 0,4 -1,6 -2,9 -2,2 -5,4 -8,4 -2,1 -5,1 -10,1l0 21 -9 0 0 -49zm9 19l3 0c3,0 4,0 5,0 1,-1 2,-1 2,-2 1,-1 1,-2 1,-3 0,-2 0,-3 -2,-4 -1,-1 -3,-1 -6,-1l-3 0 0 10z"/>
  <polygon id="6" class="fil1" points="528,966 537,966 537,1016 528,1016 "/>
  <path id="7" class="fil1" d="M589 980l9 0 0 36 -9 0 0 -4c-2,2 -3,3 -5,4 -2,0 -4,1 -6,1 -5,0 -9,-2 -12,-6 -3,-3 -5,-8 -5,-13 0,-6 2,-10 5,-14 3,-3 7,-5 12,-5 2,0 4,0 6,1 2,1 4,2 5,4l0 -4zm-9 7c-3,0 -5,1 -7,3 -2,2 -3,5 -3,8 0,3 1,5 3,7 2,2 4,3 7,3 3,0 5,-1 7,-3 2,-2 3,-4 3,-7 0,-3 -1,-6 -3,-8 -2,-2 -4,-3 -7,-3z"/>
  <polygon id="8" class="fil1" points="625,966 634,966 634,980 640,980 640,988 634,988 634,1016 625,1016 625,988 621,988 621,980 625,980 "/>
  <path id="9" class="fil1" d="M688 980l9 0 0 36 -9 0 0 -4c-1,2 -3,3 -5,4 -2,0 -4,1 -6,1 -4,0 -9,-2 -12,-6 -3,-3 -5,-8 -5,-13 0,-6 2,-10 5,-14 3,-3 7,-5 12,-5 2,0 4,0 6,1 2,1 4,2 5,4l0 -4zm-9 7c-3,0 -5,1 -7,3 -2,2 -3,5 -3,8 0,3 1,5 3,7 2,2 4,3 7,3 3,0 5,-1 7,-3 2,-2 3,-4 3,-7 0,-3 -1,-6 -3,-8 -2,-2 -4,-3 -7,-3z"/>
  <path id="10" class="fil1" d="M719 980l3 0c0,-5 0,-8 1,-9 0,-2 1,-3 2,-4 1,-1 3,-2 6,-2 2,0 4,0 6,1l0 7c-1,0 -2,0 -3,0 -1,0 -2,0 -2,0 0,1 -1,1 -1,2l0 5 6 0 0 7 -6 0 0 29 -9 0 0 -29 -3 0 0 -7z"/>
  <path id="11" class="fil1" d="M776 979c4,0 7,1 10,2 3,2 5,4 7,7 2,3 2,6 2,10 0,3 0,6 -2,9 -2,3 -4,6 -7,7 -3,2 -6,3 -10,3 -5,0 -9,-2 -13,-6 -4,-3 -5,-8 -5,-13 0,-6 2,-10 6,-14 3,-3 8,-5 12,-5zm0 8c-2,0 -5,1 -7,3 -1,2 -2,5 -2,8 0,3 1,5 2,7 2,2 5,3 7,3 3,0 6,-1 7,-3 2,-2 3,-4 3,-7 0,-3 -1,-6 -2,-8 -2,-2 -5,-3 -8,-3z"/>
  <path id="12" class="fil1" d="M818 980l7 0 0 4c1,-1 2,-3 4,-4 1,-1 3,-1 4,-1 2,0 3,0 4,1l-3 8c-1,-1 -2,-1 -2,-1 -2,0 -3,1 -4,2 -1,2 -1,5 -1,11l0 1 0 15 -9 0 0 -36z"/>
  <path id="13" class="fil1" d="M858 980l9 0 0 4c2,-2 4,-3 6,-4 1,-1 4,-1 6,-1 2,0 4,0 6,2 2,1 3,2 4,4 2,-2 3,-3 6,-4 2,-2 4,-2 6,-2 3,0 5,0 7,2 2,1 4,2 4,4 1,2 2,5 2,10l0 21 -9 0 0 -18c0,-4 -1,-7 -2,-9 -1,-1 -2,-2 -4,-2 -2,0 -3,1 -5,1 -1,1 -2,3 -2,4 -1,2 -1,4 -1,8l0 16 -9 0 0 -18c0,-3 -1,-5 -1,-7 -1,-1 -1,-2 -2,-3 -1,0 -2,-1 -4,-1 -1,0 -3,1 -4,1 -1,1 -2,3 -3,4 0,2 -1,4 -1,8l0 16 -9 0 0 -36z"/>
  <path class="fil2" d="M434 423c63,-4 101,20 98,89l0 338 117 0 86 94 -301 0 0 -521z"/>
  <path class="fil3" d="M746 542c36,0 70,9 102,27 32,19 57,43 75,74 18,31 27,65 27,101 0,36 -9,70 -27,101 -18,32 -43,57 -74,74 -31,18 -65,27 -103,27 -55,0 -103,-20 -142,-59 -39,-39 -58,-87 -58,-143 0,-60 22,-110 66,-150 39,-34 83,-52 134,-52zm1 91c-30,0 -55,10 -75,31 -20,21 -30,48 -30,80 0,33 10,60 30,81 19,21 44,31 75,31 30,0 55,-10 75,-31 20,-21 30,-48 30,-81 0,-33 -10,-60 -29,-80 -20,-21 -45,-31 -76,-31z"/>
  <path class="fil4" d="M434 559l0 385 -96 0 0 -295c-2,-63 35,-89 96,-90z"/>
  <path class="fil4" d="M404 425c11,0 21,3 31,9l0 110c-9,5 -19,8 -31,8 -17,0 -32,-6 -44,-19 -13,-12 -19,-28 -19,-45 0,-18 6,-32 19,-44 12,-13 26,-19 44,-19z"/>
  <path class="fil5" d="M180 423c56,-6 92,17 99,81l0 346 155 0 0 94 -254 0 0 -521z"/>
  <path class="fil6" d="M1054 542c37,0 71,9 103,27 32,19 57,43 75,74 18,31 27,65 27,101 0,36 -9,70 -27,101 -18,32 -43,57 -74,74 -31,18 -66,27 -103,27 -56,0 -103,-20 -142,-59 -39,-39 -59,-87 -59,-143 0,-60 23,-110 67,-150 39,-34 83,-52 133,-52zm2 91c-30,0 -55,10 -75,31 -20,21 -30,48 -30,80 0,33 10,60 29,81 20,21 45,31 75,31 31,0 56,-10 76,-31 20,-21 30,-48 30,-81 0,-33 -10,-60 -29,-80 -20,-21 -45,-31 -76,-31z"/>
 </g>
</svg>
