<?xml version="1.0" encoding="UTF-8"?>
<!DOCTYPE svg PUBLIC "-//W3C//DTD SVG 1.1//EN" "http://www.w3.org/Graphics/SVG/1.1/DTD/svg11.dtd">
<!-- Creator: CorelDRAW X7 -->
<svg xmlns="http://www.w3.org/2000/svg" xml:space="preserve" width="10000px" height="10000px" version="1.1" style="shape-rendering:geometricPrecision; text-rendering:geometricPrecision; image-rendering:optimizeQuality; fill-rule:evenodd; clip-rule:evenodd"
viewBox="0 0 2220 2220"
 xmlns:xlink="http://www.w3.org/1999/xlink">
 <defs>
  <style type="text/css">
   <![CDATA[
    .fil0 {fill:whitesmoke}
    .fil3 {fill:#1C2699;fill-rule:nonzero}
    .fil6 {fill:#333333;fill-rule:nonzero}
    .fil4 {fill:#360075;fill-rule:nonzero}
    .fil5 {fill:#D12600;fill-rule:nonzero}
    .fil2 {fill:#FF6E00;fill-rule:nonzero}
    .fil1 {fill:#FFB219;fill-rule:nonzero}
   ]]>
  </style>
 </defs>
 <g id="Camada_x0020_1">
  <metadata id="CorelCorpID_0Corel-Layer"/>
  <circle class="fil0" cx="1110" cy="1110" r="1110"/>
  <path class="fil1" d="M668 609c109,-7 175,35 170,154l0 581 202 0 149 163 -521 0 0 -898z"/>
  <path class="fil2" d="M1206 814c63,0 122,16 177,47 56,31 98,73 130,127 31,54 46,111 46,173 0,63 -16,121 -47,176 -31,54 -73,97 -127,127 -54,31 -113,46 -178,46 -96,0 -177,-33 -244,-101 -68,-68 -102,-150 -102,-246 0,-104 38,-190 115,-259 67,-60 143,-90 230,-90zm3 156c-52,0 -95,18 -130,54 -34,36 -51,82 -51,138 0,57 17,104 51,140 34,35 77,53 129,53 52,0 96,-18 130,-54 35,-36 52,-82 52,-139 0,-57 -17,-103 -51,-139 -34,-35 -77,-53 -130,-53z"/>
  <path class="fil3" d="M669 843l0 664 -166 0 0 -509c-3,-109 61,-153 166,-155z"/>
  <path class="fil3" d="M617 612c19,0 37,5 53,15l0 190c-15,9 -33,14 -52,14 -30,0 -56,-11 -77,-33 -21,-21 -32,-48 -32,-78 0,-30 11,-55 32,-76 20,-21 46,-32 76,-32z"/>
  <path class="fil4" d="M232 609c96,-10 157,30 170,139l0 596 267 0 0 163 -437 0 0 -898z"/>
  <path class="fil5" d="M1739 814c62,0 121,16 177,47 55,31 98,73 129,127 31,54 46,111 46,173 0,63 -15,121 -46,176 -31,54 -74,97 -128,127 -54,31 -113,46 -178,46 -95,0 -177,-33 -244,-101 -67,-68 -101,-150 -101,-246 0,-104 38,-190 114,-259 67,-60 144,-90 231,-90zm2 156c-52,0 -95,18 -129,54 -35,36 -52,82 -52,138 0,57 17,104 51,140 34,35 77,53 130,53 52,0 95,-18 130,-54 34,-36 52,-82 52,-139 0,-57 -17,-103 -51,-139 -34,-35 -78,-53 -131,-53z"/>
  <path class="fil6" d="M971 1593l-13 12c-5,-6 -10,-10 -15,-10 -2,0 -4,1 -5,2 -2,1 -3,3 -3,4 0,2 1,4 2,5 1,2 6,6 13,12 7,6 11,10 13,11 3,4 6,7 7,11 2,3 3,7 3,11 0,7 -3,14 -8,19 -6,5 -13,7 -21,7 -7,0 -13,-1 -18,-5 -5,-3 -9,-8 -13,-15l15 -9c5,8 10,12 16,12 3,0 6,-1 8,-2 2,-2 3,-4 3,-7 0,-2 -1,-4 -2,-6 -2,-2 -5,-6 -11,-10 -10,-8 -17,-15 -20,-19 -3,-5 -4,-9 -4,-14 0,-7 2,-12 7,-17 5,-5 11,-7 19,-7 4,0 9,1 13,3 4,2 9,6 14,12z"/>
  <polygon id="1" class="fil6" points="1000,1579 1018,1579 1018,1605 1028,1605 1028,1620 1018,1620 1018,1675 1000,1675 1000,1620 991,1620 991,1605 1000,1605 "/>
  <path id="2" class="fil6" d="M1099 1605l18 0 0 70 -18 0 0 -7c-3,3 -7,5 -10,7 -3,1 -7,2 -11,2 -9,0 -17,-4 -24,-11 -6,-7 -10,-15 -10,-26 0,-11 4,-19 10,-26 6,-7 14,-11 23,-11 4,0 8,1 12,3 4,1 7,4 10,7l0 -8zm-18 14c-6,0 -10,2 -14,6 -3,4 -5,9 -5,15 0,6 2,11 5,15 4,4 9,6 14,6 5,0 10,-2 14,-6 3,-4 5,-9 5,-15 0,-6 -2,-11 -5,-15 -4,-4 -9,-6 -14,-6z"/>
  <path id="3" class="fil6" d="M1213 1619l-15 8c-2,-3 -5,-5 -8,-6 -2,-1 -5,-1 -9,-1 -7,0 -12,2 -16,6 -4,3 -6,8 -6,15 0,5 2,10 6,14 4,4 9,6 15,6 8,0 14,-3 18,-8l14 9c-7,10 -18,15 -31,15 -13,0 -22,-4 -29,-11 -7,-7 -11,-16 -11,-26 0,-6 2,-13 5,-18 4,-6 8,-11 14,-14 6,-3 13,-5 21,-5 7,0 13,2 19,4 5,3 10,7 13,12z"/>
  <polygon id="4" class="fil6" points="1239,1578 1257,1578 1257,1634 1283,1605 1304,1605 1274,1638 1308,1675 1286,1675 1257,1643 1257,1675 1239,1675 "/>
  <path id="5" class="fil6" d="M776 1705l19 0c10,0 18,1 22,3 5,2 9,5 11,9 3,4 4,10 4,16 0,6 -2,12 -5,16 -4,4 -8,7 -14,9 -4,1 -10,2 -19,2l0 40 -18 0 0 -95zm18 37l6 0c4,0 7,0 9,-1 2,0 3,-2 4,-3 1,-2 2,-3 2,-5 0,-4 -2,-7 -5,-8 -2,-2 -5,-2 -11,-2l-5 0 0 19z"/>
  <polygon id="6" class="fil6" points="856,1703 874,1703 874,1800 856,1800 "/>
  <path id="7" class="fil6" d="M951 1730l18 0 0 70 -18 0 0 -8c-3,4 -7,6 -10,7 -3,2 -7,2 -11,2 -9,0 -17,-3 -24,-10 -6,-7 -10,-16 -10,-26 0,-11 4,-20 10,-27 6,-7 14,-10 23,-10 4,0 8,1 12,2 4,2 7,4 10,7l0 -7zm-18 14c-6,0 -10,2 -14,6 -3,4 -5,9 -5,15 0,6 2,11 5,15 4,3 9,5 14,5 5,0 10,-2 14,-5 3,-4 5,-9 5,-15 0,-7 -2,-11 -5,-15 -4,-4 -9,-6 -14,-6z"/>
  <polygon id="8" class="fil6" points="999,1704 1016,1704 1016,1730 1027,1730 1027,1745 1016,1745 1016,1800 999,1800 999,1745 990,1745 990,1730 999,1730 "/>
  <path id="9" class="fil6" d="M1098 1730l18 0 0 70 -18 0 0 -8c-3,4 -7,6 -10,7 -4,2 -8,2 -12,2 -9,0 -16,-3 -23,-10 -7,-7 -10,-16 -10,-26 0,-11 3,-20 10,-27 6,-7 14,-10 23,-10 4,0 8,1 12,2 3,2 7,4 10,7l0 -7zm-19 14c-5,0 -9,2 -13,6 -4,4 -5,9 -5,15 0,6 1,11 5,15 4,3 8,5 14,5 5,0 10,-2 13,-5 4,-4 6,-9 6,-15 0,-7 -2,-11 -6,-15 -3,-4 -8,-6 -14,-6z"/>
  <path id="10" class="fil6" d="M1135 1730l6 0c0,-9 0,-15 1,-16 0,-4 2,-7 4,-10 3,-2 7,-3 12,-3 4,0 8,1 12,3l0 13c-2,-1 -4,-1 -6,-1 -2,0 -3,0 -4,1 -1,1 -1,2 -1,4l0 9 11 0 0 15 -11 0 0 55 -18 0 0 -55 -6 0 0 -15z"/>
  <path id="11" class="fil6" d="M1223 1728c7,0 13,2 19,5 6,3 10,8 13,13 4,6 5,12 5,19 0,6 -1,12 -5,18 -3,6 -7,10 -13,14 -6,3 -12,4 -19,4 -10,0 -18,-3 -26,-10 -7,-7 -10,-16 -10,-26 0,-11 4,-20 12,-27 7,-7 15,-10 24,-10zm0 17c-5,0 -10,1 -13,5 -4,4 -6,9 -6,15 0,6 2,11 6,14 3,4 8,6 13,6 6,0 10,-2 14,-6 4,-3 6,-8 6,-14 0,-6 -2,-11 -6,-15 -3,-4 -8,-5 -14,-5z"/>
  <path id="12" class="fil6" d="M1281 1730l15 0 0 9c1,-4 3,-6 6,-8 3,-2 6,-3 9,-3 2,0 5,1 7,2l-5 15c-2,-1 -4,-2 -5,-2 -3,0 -5,2 -7,5 -2,4 -3,10 -3,20l0 4 0 28 -17 0 0 -70z"/>
  <path id="13" class="fil6" d="M1337 1730l17 0 0 8c3,-3 7,-6 10,-8 4,-1 8,-2 12,-2 5,0 9,1 12,3 4,2 7,6 9,10 2,-4 6,-8 10,-10 4,-2 9,-3 13,-3 5,0 10,1 13,3 4,3 7,6 9,10 1,3 2,9 2,18l0 41 -17 0 0 -36c0,-8 -1,-13 -3,-16 -2,-2 -5,-4 -9,-4 -3,0 -6,1 -9,3 -2,1 -4,4 -5,7 -1,3 -2,8 -2,14l0 32 -17 0 0 -34c0,-6 -1,-11 -2,-14 -1,-2 -2,-4 -4,-6 -2,-1 -4,-2 -7,-2 -3,0 -5,1 -8,3 -2,1 -4,4 -5,7 -1,3 -2,8 -2,15l0 31 -17 0 0 -70z"/>
 </g>
</svg>
