<?xml version="1.0" encoding="UTF-8"?>
<!DOCTYPE svg PUBLIC "-//W3C//DTD SVG 1.1//EN" "http://www.w3.org/Graphics/SVG/1.1/DTD/svg11.dtd">
<!-- Creator: CorelDRAW X7 -->
<svg xmlns="http://www.w3.org/2000/svg" xml:space="preserve" width="5000px" height="5000px" version="1.1" style="shape-rendering:geometricPrecision; text-rendering:geometricPrecision; image-rendering:optimizeQuality; fill-rule:evenodd; clip-rule:evenodd"
viewBox="0 0 1193 1193"
 xmlns:xlink="http://www.w3.org/1999/xlink">
 <defs>
  <style type="text/css">
   <![CDATA[
    .fil0 {fill:black}
    .fil2 {fill:#2B2A2A;fill-rule:nonzero}
    .fil1 {fill:#4D4D4D;fill-rule:nonzero}
    .fil5 {fill:#666666;fill-rule:nonzero}
    .fil4 {fill:#999999;fill-rule:nonzero}
    .fil3 {fill:#CCCCCC;fill-rule:nonzero}
   ]]>
  </style>
 </defs>
 <g id="Camada_x0020_1">
  <metadata id="CorelCorpID_0Corel-Layer"/>
  <rect class="fil0" width="1193" height="1193" rx="137" ry="160"/>
  <g id="_1555447060416">
   <path class="fil1" d="M353 456l0 328 -82 0 0 -251c-1,-54 30,-76 82,-77z"/>
   <path class="fil1" d="M327 342c10,0 19,3 27,7l0 94c-8,5 -17,7 -26,7 -15,0 -28,-5 -38,-16 -11,-10 -16,-23 -16,-39 0,-14 5,-27 16,-37 10,-10 22,-16 37,-16z"/>
   <path class="fil2" d="M137 341c48,-5 78,14 84,68l0 295 131 0 0 80 -215 0 0 -443z"/>
   <path class="fil3" d="M164 816l-6 5c-2,-3 -4,-4 -6,-4 -1,0 -2,0 -3,1 0,0 -1,1 -1,2 0,0 1,1 1,2 1,1 3,2 6,5 3,3 5,4 6,5 1,1 2,3 3,5 1,1 1,3 1,4 0,4 -1,7 -4,9 -2,2 -5,3 -9,3 -3,0 -5,-1 -8,-2 -2,-1 -4,-4 -5,-7l6 -4c2,4 5,6 7,6 2,0 3,-1 4,-2 1,0 1,-1 1,-2 0,-1 0,-2 -1,-3 -1,-1 -2,-3 -5,-4 -4,-4 -7,-7 -8,-9 -2,-2 -2,-4 -2,-6 0,-3 1,-5 3,-7 2,-3 5,-4 8,-4 2,0 4,1 6,2 2,1 4,3 6,5z"/>
   <polygon id="1" class="fil3" points="187,810 195,810 195,821 199,821 199,828 195,828 195,852 187,852 187,828 183,828 183,821 187,821 "/>
   <path id="2" class="fil3" d="M241 821l8 0 0 31 -8 0 0 -3c-2,1 -3,2 -5,3 -1,1 -3,1 -5,1 -4,0 -7,-2 -10,-5 -3,-3 -4,-7 -4,-11 0,-5 1,-9 4,-12 3,-3 6,-4 10,-4 2,0 4,0 5,1 2,0 3,1 5,3l0 -4zm-8 7c-3,0 -5,0 -6,2 -2,2 -3,4 -3,7 0,2 1,5 3,6 1,2 3,3 6,3 2,0 4,-1 6,-3 1,-1 2,-4 2,-6 0,-3 -1,-5 -2,-7 -2,-2 -4,-2 -6,-2z"/>
   <path id="3" class="fil3" d="M301 828l-6 3c-2,-1 -3,-2 -4,-3 -1,0 -3,0 -4,0 -3,0 -5,1 -7,2 -2,2 -3,4 -3,7 0,3 1,5 3,6 1,2 4,3 6,3 4,0 7,-1 9,-4l6 4c-4,5 -8,7 -14,7 -6,0 -10,-2 -13,-5 -3,-3 -5,-7 -5,-11 0,-3 1,-6 3,-8 1,-3 3,-5 6,-6 2,-2 5,-2 9,-2 3,0 6,0 8,1 2,2 4,3 6,6z"/>
   <polygon id="4" class="fil3" points="323,809 330,809 330,834 342,821 351,821 338,836 353,852 343,852 330,838 330,852 323,852 "/>
   <path id="5" class="fil3" d="M388 810l8 0c5,0 8,1 10,2 2,1 4,2 5,4 1,2 1,4 1,7 0,2 0,5 -2,7 -1,2 -3,3 -6,4 -2,0 -4,0 -8,0l0 18 -8 0 0 -42zm8 17l2 0c2,0 3,0 4,-1 1,0 2,0 2,-1 1,-1 1,-2 1,-2 0,-2 -1,-3 -2,-4 -1,-1 -3,-1 -5,-1l-2 0 0 9z"/>
   <polygon id="6" class="fil3" points="433,809 441,809 441,852 433,852 "/>
   <path id="7" class="fil3" d="M485 821l8 0 0 31 -8 0 0 -3c-1,1 -3,2 -5,3 -1,1 -3,1 -4,1 -4,0 -8,-2 -11,-5 -3,-3 -4,-7 -4,-11 0,-5 1,-9 4,-12 3,-3 6,-4 10,-4 2,0 4,0 6,1 1,0 3,1 4,3l0 -4zm-8 7c-3,0 -4,0 -6,2 -2,2 -2,4 -2,7 0,2 0,5 2,6 2,2 4,3 6,3 2,0 4,-1 6,-3 2,-1 2,-4 2,-6 0,-3 0,-5 -2,-7 -2,-2 -4,-2 -6,-2z"/>
   <polygon id="8" class="fil3" points="516,810 524,810 524,821 528,821 528,828 524,828 524,852 516,852 516,828 512,828 512,821 516,821 "/>
   <path id="9" class="fil3" d="M570 821l7 0 0 31 -7 0 0 -3c-2,1 -3,2 -5,3 -1,1 -3,1 -5,1 -4,0 -7,-2 -10,-5 -3,-3 -4,-7 -4,-11 0,-5 1,-9 4,-12 3,-3 6,-4 10,-4 2,0 4,0 5,1 2,0 3,1 5,3l0 -4zm-8 7c-3,0 -5,0 -6,2 -2,2 -3,4 -3,7 0,2 1,5 3,6 1,2 3,3 6,3 2,0 4,-1 6,-3 1,-1 2,-4 2,-6 0,-3 -1,-5 -2,-7 -2,-2 -4,-2 -6,-2z"/>
   <path id="10" class="fil3" d="M596 821l3 0c0,-4 0,-6 0,-7 0,-2 1,-3 2,-4 1,-1 3,-1 5,-1 2,0 4,0 6,1l0 6c-1,-1 -2,-1 -3,-1 -1,0 -2,0 -2,1 0,0 0,1 0,1l-1 4 5 0 0 7 -4 0 0 24 -8 0 0 -24 -3 0 0 -7z"/>
   <path id="11" class="fil3" d="M645 821c3,0 6,0 8,2 3,1 5,3 6,6 2,2 2,5 2,8 0,3 0,5 -2,8 -1,2 -3,4 -6,6 -2,1 -5,2 -8,2 -4,0 -8,-2 -11,-5 -3,-3 -5,-7 -5,-11 0,-5 2,-9 5,-12 3,-3 7,-4 11,-4zm0 7c-2,0 -4,1 -6,2 -2,2 -2,4 -2,7 0,2 0,5 2,6 2,2 4,3 6,3 2,0 4,-1 6,-3 2,-2 2,-4 2,-6 0,-3 0,-5 -2,-7 -1,-1 -3,-2 -6,-2z"/>
   <path id="12" class="fil3" d="M680 821l7 0 0 4c1,-1 2,-2 3,-3 1,-1 2,-1 4,-1 1,0 2,0 3,0l-3 7c0,0 -1,-1 -2,-1 -1,0 -2,1 -3,3 -1,1 -1,4 -1,8l0 2 0 12 -8 0 0 -31z"/>
   <path id="13" class="fil3" d="M715 821l8 0 0 4c1,-2 3,-3 4,-3 2,-1 4,-1 6,-1 1,0 3,0 5,1 1,1 3,2 3,4 2,-2 3,-3 5,-4 2,-1 4,-1 6,-1 2,0 4,0 6,1 1,1 3,2 3,4 1,2 1,4 1,8l0 18 -7 0 0 -15c0,-4 -1,-6 -2,-8 -1,-1 -2,-1 -4,-1 -1,0 -2,0 -3,1 -1,1 -2,2 -3,3 0,1 0,3 0,6l0 14 -8 0 0 -15c0,-2 0,-4 -1,-6 0,-1 -1,-2 -2,-2 0,-1 -1,-1 -3,-1 -1,0 -2,0 -3,1 -1,1 -2,2 -2,3 -1,1 -1,4 -1,6l0 14 -8 0 0 -31z"/>
   <path class="fil3" d="M353 341c54,-4 86,17 84,76l0 287 99 0 74 80 -257 0 0 -443z"/>
   <path class="fil4" d="M619 442c31,0 60,8 87,23 27,16 49,37 64,63 15,27 23,55 23,86 0,31 -8,60 -23,86 -16,27 -37,48 -63,63 -27,16 -56,23 -88,23 -47,0 -88,-17 -121,-50 -33,-33 -50,-74 -50,-122 0,-51 19,-93 57,-128 33,-29 71,-44 114,-44zm1 77c-26,0 -47,9 -64,27 -17,18 -26,40 -26,68 0,28 9,51 26,69 16,18 38,27 63,27 26,0 48,-9 65,-27 17,-18 25,-41 25,-69 0,-28 -8,-51 -25,-69 -17,-17 -38,-26 -64,-26z"/>
   <path class="fil5" d="M882 442c31,0 60,8 87,23 28,16 49,37 64,63 16,27 23,55 23,86 0,31 -8,60 -23,86 -15,27 -36,48 -63,63 -27,16 -56,23 -88,23 -47,0 -87,-17 -121,-50 -33,-33 -50,-74 -50,-122 0,-51 19,-93 57,-128 33,-29 71,-44 114,-44zm1 77c-26,0 -47,9 -64,27 -17,18 -25,40 -25,68 0,28 8,51 25,69 17,18 38,27 64,27 25,0 47,-9 64,-27 17,-18 26,-41 26,-69 0,-28 -9,-51 -25,-69 -17,-17 -39,-26 -65,-26z"/>
  </g>
 </g>
</svg>
