<?xml version="1.0" encoding="UTF-8"?>
<!DOCTYPE svg PUBLIC "-//W3C//DTD SVG 1.1//EN" "http://www.w3.org/Graphics/SVG/1.1/DTD/svg11.dtd">
<!-- Creator: CorelDRAW X7 -->
<svg xmlns="http://www.w3.org/2000/svg" xml:space="preserve" width="4500px" height="2436px" version="1.1" style="shape-rendering:geometricPrecision; text-rendering:geometricPrecision; image-rendering:optimizeQuality; fill-rule:evenodd; clip-rule:evenodd"
viewBox="0 0 1308 708"
 xmlns:xlink="http://www.w3.org/1999/xlink">
 <defs>
  <style type="text/css">
   <![CDATA[
    .fil1 {fill:black;fill-rule:nonzero}
    .fil0 {fill:#333333;fill-rule:nonzero}
    .fil2 {fill:#333333;fill-rule:nonzero}
    .fil5 {fill:#666666;fill-rule:nonzero}
    .fil4 {fill:#999999;fill-rule:nonzero}
    .fil3 {fill:#CCCCCC;fill-rule:nonzero}
   ]]>
  </style>
 </defs>
 <g id="Camada_x0020_1">
  <metadata id="CorelCorpID_0Corel-Layer"/>
  <g id="_1555365865072">
   <path class="fil0" d="M308 166l0 467 -117 0 0 -359c-2,-76 42,-107 117,-108z"/>
   <path class="fil0" d="M271 4c14,0 26,3 37,10l0 133c-11,7 -23,10 -36,10 -22,0 -40,-8 -54,-23 -15,-15 -23,-33 -23,-55 0,-21 8,-39 22,-53 15,-15 33,-22 54,-22z"/>
   <path class="fil1" d="M0 1c68,-7 111,21 120,98l0 419 186 0 0 115 -306 0 0 -632z"/>
   <path class="fil2" d="M37 656l-9 8c-3,-4 -5,-6 -8,-6 -2,0 -3,0 -4,1 -1,1 -1,1 -1,2 0,1 0,2 1,3 0,1 3,4 8,8 4,3 7,6 7,6 3,3 4,5 5,7 1,2 2,4 2,7 0,5 -2,9 -5,12 -4,3 -8,4 -13,4 -4,0 -8,-1 -11,-3 -3,-2 -6,-5 -8,-9l9 -6c3,5 6,8 10,8 2,0 4,-1 5,-2 1,-1 2,-2 2,-4 0,-1 -1,-2 -2,-4 -1,-1 -3,-3 -6,-6 -7,-5 -11,-9 -13,-12 -1,-3 -2,-5 -2,-8 0,-4 1,-8 4,-11 3,-3 7,-4 12,-4 3,0 5,1 8,2 3,1 6,4 9,7zm32 -8l11 0 0 16 6 0 0 9 -6 0 0 34 -11 0 0 -34 -6 0 0 -9 6 0 0 -16zm75 16l11 0 0 43 -11 0 0 -5c-2,2 -4,4 -6,5 -2,1 -4,1 -7,1 -6,0 -10,-2 -14,-6 -5,-5 -7,-10 -7,-17 0,-6 2,-12 6,-16 4,-4 9,-6 15,-6 2,0 5,0 7,1 2,1 4,2 6,4l0 -4zm-11 9c-3,0 -6,1 -8,3 -3,2 -4,6 -4,9 0,4 1,7 4,9 2,3 5,4 8,4 3,0 6,-1 9,-3 2,-3 3,-6 3,-10 0,-4 -1,-7 -3,-9 -3,-2 -6,-3 -9,-3zm96 -1l-9 5c-2,-1 -3,-3 -5,-3 -2,-1 -4,-1 -6,-1 -4,0 -7,1 -10,3 -2,3 -3,6 -3,10 0,3 1,6 3,9 3,2 6,3 10,3 5,0 8,-2 11,-5l9 6c-5,6 -12,9 -20,9 -8,0 -14,-2 -18,-7 -4,-4 -6,-9 -6,-16 0,-4 1,-8 3,-11 2,-4 5,-6 8,-8 4,-2 8,-3 13,-3 4,0 8,0 12,2 3,2 6,4 8,7zm30 -25l11 0 0 35 16 -18 14 0 -19 20 21 23 -13 0 -19 -20 0 20 -11 0 0 -60zm92 1l12 0c6,0 11,1 14,2 3,1 5,3 6,6 2,3 3,6 3,9 0,5 -1,8 -3,11 -3,2 -5,4 -9,5 -2,1 -6,1 -12,1l0 25 -11 0 0 -59zm11 23l4 0c2,0 4,0 6,0 1,-1 1,-1 2,-2 1,-1 1,-2 1,-4 0,-2 -1,-4 -3,-5 -1,0 -3,-1 -7,-1l-3 0 0 12zm53 -24l11 0 0 60 -11 0 0 -60zm73 17l11 0 0 43 -11 0 0 -5c-2,2 -4,4 -6,5 -3,1 -5,1 -7,1 -6,0 -11,-2 -15,-6 -4,-5 -6,-10 -6,-17 0,-6 2,-12 6,-16 4,-4 9,-6 14,-6 3,0 5,0 8,1 2,1 4,2 6,4l0 -4zm-11 9c-4,0 -7,1 -9,3 -2,2 -3,6 -3,9 0,4 1,7 3,9 2,3 5,4 9,4 3,0 6,-1 8,-3 2,-3 3,-6 3,-10 0,-4 -1,-7 -3,-9 -2,-2 -5,-3 -8,-3zm54 -25l11 0 0 16 7 0 0 9 -7 0 0 34 -11 0 0 -34 -5 0 0 -9 5 0 0 -16zm76 16l11 0 0 43 -11 0 0 -5c-2,2 -4,4 -6,5 -2,1 -5,1 -7,1 -6,0 -11,-2 -15,-6 -4,-5 -6,-10 -6,-17 0,-6 2,-12 6,-16 4,-4 9,-6 14,-6 3,0 5,0 8,1 2,1 4,2 6,4l0 -4zm-11 9c-4,0 -6,1 -9,3 -2,2 -3,6 -3,9 0,4 1,7 3,9 3,3 5,4 9,4 3,0 6,-1 8,-3 2,-3 4,-6 4,-10 0,-4 -2,-7 -4,-9 -2,-2 -5,-3 -8,-3zm48 -9l4 0c0,-6 0,-9 0,-10 1,-3 2,-5 3,-6 2,-1 4,-2 8,-2 2,0 4,0 7,1l0 9c-1,-1 -3,-1 -4,-1 -1,0 -2,0 -2,1 -1,0 -1,1 -1,2l0 6 7 0 0 9 -7 0 0 34 -11 0 0 -34 -4 0 0 -9zm69 -1c4,0 8,1 11,3 4,2 7,4 9,8 2,3 3,7 3,11 0,4 -1,8 -3,12 -2,3 -5,6 -8,8 -4,2 -8,3 -12,3 -6,0 -12,-2 -16,-7 -4,-4 -7,-9 -7,-16 0,-6 3,-12 8,-17 4,-3 9,-5 15,-5zm0 10c-3,0 -6,1 -8,3 -3,3 -4,6 -4,9 0,4 1,7 4,9 2,3 5,4 8,4 3,0 6,-1 9,-4 2,-2 3,-5 3,-9 0,-3 -1,-6 -3,-9 -3,-2 -5,-3 -9,-3zm50 -9l9 0 0 5c1,-2 2,-4 4,-5 2,-1 4,-1 6,-1 1,0 2,0 4,1l-3 9c-2,-1 -3,-1 -4,-1 -1,0 -3,1 -4,3 -1,2 -2,6 -2,12l1 3 0 17 -11 0 0 -43zm49 0l10 0 0 5c2,-2 4,-4 7,-5 2,-1 4,-1 7,-1 3,0 5,0 7,2 3,1 4,3 6,5 1,-2 4,-4 6,-5 3,-2 5,-2 8,-2 3,0 6,0 9,2 2,1 4,3 5,5 1,3 1,6 1,12l0 25 -11 0 0 -22c0,-5 0,-8 -2,-10 -1,-2 -3,-2 -5,-2 -2,0 -4,0 -5,1 -2,1 -3,3 -4,5 0,1 -1,4 -1,9l0 19 -10 0 0 -21c0,-4 -1,-7 -1,-8 -1,-2 -2,-3 -3,-4 -1,-1 -2,-1 -4,-1 -2,0 -4,0 -5,1 -2,1 -3,3 -3,5 -1,2 -2,5 -2,9l0 19 -10 0 0 -43z"/>
   <path class="fil3" d="M307 1c77,-5 123,25 120,108l0 409 142 0 104 115 -366 0 0 -632z"/>
   <path class="fil4" d="M686 145c44,0 85,11 124,33 39,22 69,52 91,90 22,38 33,78 33,122 0,44 -11,85 -33,123 -22,38 -52,68 -90,90 -38,21 -79,32 -125,32 -67,0 -124,-24 -172,-71 -47,-48 -71,-105 -71,-173 0,-73 27,-134 80,-182 47,-43 101,-64 163,-64zm1 110c-36,0 -67,13 -91,38 -24,25 -36,58 -36,97 0,41 12,73 36,98 24,26 54,38 91,38 36,0 67,-13 91,-38 25,-25 37,-58 37,-98 0,-40 -12,-72 -36,-97 -24,-25 -54,-38 -92,-38z"/>
   <path class="fil5" d="M1060 145c44,0 86,11 125,33 39,22 69,52 91,90 22,38 32,78 32,122 0,44 -11,85 -32,123 -22,38 -52,68 -90,90 -38,21 -80,32 -125,32 -67,0 -125,-24 -172,-71 -48,-48 -71,-105 -71,-173 0,-73 26,-134 80,-182 47,-43 101,-64 162,-64zm2 110c-37,0 -67,13 -91,38 -24,25 -36,58 -36,97 0,41 12,73 36,98 23,26 54,38 91,38 36,0 67,-13 91,-38 24,-25 37,-58 37,-98 0,-40 -12,-72 -36,-97 -24,-25 -55,-38 -92,-38z"/>
  </g>
 </g>
</svg>
