<?xml version="1.0" encoding="UTF-8"?>
<!DOCTYPE svg PUBLIC "-//W3C//DTD SVG 1.1//EN" "http://www.w3.org/Graphics/SVG/1.1/DTD/svg11.dtd">
<!-- Creator: CorelDRAW X7 -->
<svg xmlns="http://www.w3.org/2000/svg" xml:space="preserve" width="2500px" height="1360px" version="1.1" style="shape-rendering:geometricPrecision; text-rendering:geometricPrecision; image-rendering:optimizeQuality; fill-rule:evenodd; clip-rule:evenodd"
viewBox="0 0 2338 1269"
 xmlns:xlink="http://www.w3.org/1999/xlink">
 <defs>
  <style type="text/css">
   <![CDATA[
    .fil3 {fill:#333333;fill-rule:nonzero}
    .fil2 {fill:#360075;fill-rule:nonzero}
    .fil0 {fill:#5111BF;fill-rule:nonzero}
    .fil1 {fill:#5111BF;fill-rule:nonzero}
    .fil6 {fill:#D12600;fill-rule:nonzero}
    .fil5 {fill:#FF6E00;fill-rule:nonzero}
    .fil4 {fill:#FFB219;fill-rule:nonzero}
   ]]>
  </style>
 </defs>
 <g id="Camada_x0020_1">
  <metadata id="CorelCorpID_0Corel-Layer"/>
  <path class="fil0" d="M550 296l0 834 -209 0 0 -639c-3,-137 76,-192 209,-195z"/>
  <path class="fil1" d="M484 6c25,0 47,6 67,18l0 240c-19,11 -41,17 -66,17 -37,0 -70,-14 -96,-41 -27,-27 -40,-60 -40,-99 0,-37 13,-69 39,-95 27,-26 59,-40 96,-40z"/>
  <path class="fil2" d="M0 2c121,-13 198,37 214,174l0 750 333 0 0 204 -547 0 0 -1128z"/>
  <path class="fil3" d="M67 1174l-15 13c-5,-7 -11,-11 -16,-11 -3,0 -5,1 -7,2 -2,1 -2,3 -2,5 0,2 0,3 1,5 2,2 7,7 16,14 7,6 12,10 14,12 4,4 7,8 9,12 1,4 2,8 2,13 0,9 -3,16 -9,22 -6,5 -14,8 -24,8 -8,0 -14,-2 -20,-5 -6,-4 -10,-10 -15,-18l18 -11c5,10 11,15 18,15 3,0 6,-1 9,-3 2,-2 3,-5 3,-7 0,-3 -1,-5 -3,-8 -1,-2 -5,-6 -12,-11 -11,-9 -19,-17 -22,-22 -4,-5 -5,-10 -5,-16 0,-7 2,-13 8,-19 6,-5 13,-8 21,-8 5,0 11,1 15,4 5,2 11,7 16,14z"/>
  <polygon id="1" class="fil3" points="126,1158 146,1158 146,1187 158,1187 158,1204 146,1204 146,1266 126,1266 126,1204 116,1204 116,1187 126,1187 "/>
  <path id="2" class="fil3" d="M265 1187l20 0 0 79 -20 0 0 -8c-4,4 -8,6 -12,8 -4,2 -8,2 -12,2 -11,0 -20,-4 -27,-12 -8,-7 -11,-17 -11,-29 0,-12 3,-22 10,-30 8,-8 17,-12 27,-12 5,0 9,1 13,3 5,1 8,4 12,8l0 -9zm-21 16c-6,0 -11,2 -15,7 -4,4 -6,10 -6,17 0,6 2,12 6,17 4,4 9,6 15,6 6,0 12,-2 16,-6 4,-5 6,-10 6,-18 0,-6 -2,-12 -6,-16 -4,-5 -10,-7 -16,-7z"/>
  <path id="3" class="fil3" d="M420 1203l-16 9c-3,-3 -6,-5 -9,-7 -3,-1 -7,-1 -11,-1 -8,0 -14,2 -18,6 -5,5 -7,10 -7,17 0,7 2,12 6,17 5,4 11,6 18,6 9,0 16,-3 21,-9l15 11c-8,11 -20,16 -36,16 -14,0 -25,-4 -33,-12 -7,-8 -11,-18 -11,-29 0,-8 2,-15 5,-21 4,-7 10,-12 17,-15 6,-4 14,-6 23,-6 8,0 15,2 21,5 6,3 11,7 15,13z"/>
  <polygon id="4" class="fil3" points="476,1156 496,1156 496,1220 525,1187 550,1187 516,1225 555,1266 530,1266 496,1230 496,1266 476,1266 "/>
  <path id="5" class="fil3" d="M644 1159l22 0c12,0 20,1 25,3 5,2 10,6 13,11 3,5 4,10 4,17 0,8 -2,14 -6,19 -4,5 -9,8 -16,10 -4,1 -11,2 -21,2l0 45 -21 0 0 -107zm21 42l6 0c5,0 9,0 11,-1 2,-1 3,-2 5,-4 1,-1 1,-3 1,-6 0,-4 -1,-7 -5,-9 -2,-1 -6,-2 -13,-2l-5 0 0 22z"/>
  <polygon id="6" class="fil3" points="761,1156 781,1156 781,1266 761,1266 "/>
  <path id="7" class="fil3" d="M896 1187l19 0 0 79 -19 0 0 -8c-4,4 -8,6 -12,8 -4,2 -8,2 -13,2 -10,0 -19,-4 -27,-12 -7,-7 -11,-17 -11,-29 0,-12 4,-22 11,-30 7,-8 16,-12 26,-12 5,0 10,1 14,3 4,1 8,4 12,8l0 -9zm-21 16c-7,0 -12,2 -16,7 -4,4 -6,10 -6,17 0,6 2,12 6,17 4,4 10,6 16,6 6,0 11,-2 15,-6 4,-5 6,-10 6,-18 0,-6 -2,-12 -6,-16 -4,-5 -9,-7 -15,-7z"/>
  <polygon id="8" class="fil3" points="975,1158 995,1158 995,1187 1007,1187 1007,1204 995,1204 995,1266 975,1266 975,1204 965,1204 965,1187 975,1187 "/>
  <path id="9" class="fil3" d="M1114 1187l20 0 0 79 -20 0 0 -8c-4,4 -8,6 -12,8 -3,2 -8,2 -12,2 -11,0 -19,-4 -27,-12 -7,-7 -11,-17 -11,-29 0,-12 3,-22 11,-30 7,-8 16,-12 26,-12 5,0 9,1 14,3 4,1 8,4 11,8l0 -9zm-21 16c-6,0 -11,2 -15,7 -4,4 -6,10 -6,17 0,6 2,12 6,17 4,4 9,6 15,6 7,0 12,-2 16,-6 4,-5 6,-10 6,-18 0,-6 -2,-12 -6,-16 -4,-5 -9,-7 -16,-7z"/>
  <path id="10" class="fil3" d="M1182 1187l7 0c0,-10 1,-17 1,-18 0,-5 2,-8 5,-11 3,-2 8,-4 14,-4 4,0 8,1 14,3l0 15c-3,-1 -6,-1 -8,-1 -2,0 -4,1 -5,2 0,0 -1,2 -1,4l0 10 13 0 0 17 -13 0 0 62 -20 0 0 -62 -7 0 0 -17z"/>
  <path id="11" class="fil3" d="M1308 1185c8,0 15,2 22,6 6,3 11,8 15,15 4,6 6,13 6,21 0,7 -2,14 -6,21 -4,6 -9,11 -15,15 -7,4 -14,5 -21,5 -12,0 -22,-4 -30,-12 -8,-8 -12,-18 -12,-29 0,-13 5,-23 14,-31 8,-7 17,-11 27,-11zm1 19c-6,0 -12,2 -16,6 -4,4 -6,10 -6,17 0,7 2,12 6,16 4,5 9,7 16,7 6,0 11,-2 15,-7 4,-4 6,-10 6,-16 0,-7 -2,-13 -6,-17 -4,-4 -9,-6 -15,-6z"/>
  <path id="12" class="fil3" d="M1400 1187l17 0 0 10c2,-4 4,-7 7,-9 3,-2 7,-3 10,-3 3,0 6,1 8,2l-6 17c-2,-1 -4,-1 -6,-1 -3,0 -5,1 -7,5 -2,4 -3,11 -3,23l0 3 0 32 -20 0 0 -79z"/>
  <path id="13" class="fil3" d="M1490 1187l19 0 0 9c4,-4 8,-6 12,-8 4,-2 9,-3 14,-3 5,0 9,1 13,4 4,2 7,6 10,10 3,-4 7,-8 11,-10 5,-3 10,-4 16,-4 5,0 10,1 15,4 4,3 7,6 9,10 2,4 3,11 3,21l0 46 -20 0 0 -40c0,-9 -1,-15 -4,-18 -2,-3 -5,-5 -10,-5 -3,0 -6,1 -9,3 -3,2 -5,5 -6,8 -2,4 -2,9 -2,17l0 35 -20 0 0 -38c0,-7 -1,-12 -2,-15 -1,-3 -2,-6 -5,-7 -2,-2 -4,-3 -7,-3 -4,0 -7,1 -9,3 -3,2 -5,5 -7,8 -1,4 -2,10 -2,17l0 35 -19 0 0 -79z"/>
  <path class="fil4" d="M549 2c137,-9 219,44 214,193l0 731 253 0 187 204 -654 0 0 -1128z"/>
  <path class="fil5" d="M1225 260c79,0 153,19 223,59 69,39 123,92 162,159 39,68 59,141 59,219 0,78 -20,152 -59,220 -39,68 -93,122 -160,160 -68,39 -143,58 -224,58 -120,0 -222,-42 -307,-127 -85,-85 -127,-188 -127,-310 0,-130 48,-238 143,-325 85,-76 181,-113 290,-113zm3 196c-65,0 -119,23 -162,68 -44,45 -65,103 -65,173 0,72 21,131 64,176 43,45 97,67 163,67 65,0 119,-23 163,-68 44,-45 65,-104 65,-175 0,-71 -21,-129 -64,-174 -42,-45 -97,-67 -164,-67z"/>
  <path class="fil6" d="M1895 260c79,0 153,19 222,59 70,39 124,92 163,159 39,68 58,141 58,219 0,78 -19,152 -58,220 -40,68 -93,122 -161,160 -68,39 -142,58 -223,58 -120,0 -223,-42 -307,-127 -85,-85 -128,-188 -128,-310 0,-130 48,-238 144,-325 84,-76 181,-113 290,-113zm3 196c-65,0 -120,23 -163,68 -43,45 -65,103 -65,173 0,72 22,131 64,176 43,45 97,67 163,67 66,0 120,-23 164,-68 43,-45 65,-104 65,-175 0,-71 -21,-129 -64,-174 -43,-45 -98,-67 -164,-67z"/>
 </g>
</svg>
