<?xml version="1.0" encoding="UTF-8"?>
<!DOCTYPE svg PUBLIC "-//W3C//DTD SVG 1.1//EN" "http://www.w3.org/Graphics/SVG/1.1/DTD/svg11.dtd">
<!-- Creator: CorelDRAW X7 -->
<svg xmlns="http://www.w3.org/2000/svg" xml:space="preserve" width="5000px" height="3656px" version="1.1" style="shape-rendering:geometricPrecision; text-rendering:geometricPrecision; image-rendering:optimizeQuality; fill-rule:evenodd; clip-rule:evenodd"
viewBox="0 0 13071 9556"
 xmlns:xlink="http://www.w3.org/1999/xlink">
 <defs>
  <style type="text/css">
   <![CDATA[
    .fil0 {fill:#3A559F}
    .fil2 {fill:#9900CC}
    .fil1 {fill:#FDFEFE}
    .fil3 {fill:white}
    .fnt0 {font-weight:bold;font-size:1912.27px;font-family:'Arial'}
   ]]>
  </style>
 </defs>
 <g id="Camada_x0020_1">
  <metadata id="CorelCorpID_0Corel-Layer"/>
  <g id="_2131616576816">
   <path class="fil0" d="M4072 4036c0,-767 -122,-1782 777,-2136 299,-118 528,-108 862,-108 577,0 548,-50 548,429 0,606 57,589 -380,589 -836,-1 -710,243 -710,1226 287,0 574,2 860,0 158,-1 256,2 262,164 3,94 -29,269 -40,371 -46,413 -10,605 -240,614 -266,9 -579,-22 -837,4 -1,522 -2,1045 -3,1568 0,261 -2,523 -1,784 1,158 2,222 -166,225l-787 0c-163,-7 -146,-98 -145,-244l0 -2338c-143,0 -574,19 -685,-6 -183,-40 -121,-381 -122,-568 -3,-694 -101,-574 807,-574zm-4072 593c0,711 44,1105 273,1762 111,319 212,501 368,789 36,66 69,111 106,173 154,257 444,604 648,808 194,194 397,361 621,518 280,198 415,276 727,430 443,218 1210,447 1867,447l26 0c526,0 779,-4 1311,-137 161,-41 294,-83 444,-135 612,-214 988,-478 1467,-847 957,-738 1698,-2235 1698,-3491 0,-862 -101,-1482 -441,-2190 -517,-1077 -1247,-1775 -2302,-2308 -505,-255 -1294,-448 -1867,-448 -719,0 -1112,40 -1780,273 -133,46 -289,108 -410,169l-553 305c-784,469 -1355,1203 -1761,2009 -256,507 -442,1299 -442,1873z"/>
   <path class="fil1" d="M4072 4036c-908,0 -810,-120 -807,574 1,187 -61,528 122,568 111,25 542,6 685,6l0 2338c-1,146 -18,237 145,244l787 0c168,-3 167,-67 166,-225 -1,-261 1,-523 1,-784 1,-523 2,-1046 3,-1568 258,-26 571,5 837,-4 230,-9 194,-201 240,-614 11,-102 43,-277 40,-371 -6,-162 -104,-165 -262,-164 -286,2 -573,0 -860,0 0,-983 -126,-1227 710,-1226 437,0 380,17 380,-589 0,-479 29,-429 -548,-429 -334,0 -563,-10 -862,108 -899,354 -777,1369 -777,2136z"/>
  </g>
  <g id="_2131616575536">
   <rect class="fil2" x="6806" y="4261" width="6266" height="2958" rx="394" ry="394"/>
   <text x="7743" y="6513"  class="fil3 fnt0">SMM</text>
  </g>
 </g>
</svg>
