<?xml version="1.0" encoding="UTF-8"?>
<!DOCTYPE svg PUBLIC "-//W3C//DTD SVG 1.1//EN" "http://www.w3.org/Graphics/SVG/1.1/DTD/svg11.dtd">
<!-- Creator: CorelDRAW X7 -->
<svg xmlns="http://www.w3.org/2000/svg" xml:space="preserve" width="5000px" height="3234px" version="1.1" style="shape-rendering:geometricPrecision; text-rendering:geometricPrecision; image-rendering:optimizeQuality; fill-rule:evenodd; clip-rule:evenodd"
viewBox="0 0 393 254"
 xmlns:xlink="http://www.w3.org/1999/xlink">
 <defs>
  <style type="text/css">
   <![CDATA[
    .fil1 {fill:#000066}
    .fil0 {fill:#006321}
    .fil2 {fill:white}
    .fnt0 {font-weight:bold;font-size:51.8465px;font-family:'Arial'}
   ]]>
  </style>
 </defs>
 <g id="Camada_x0020_1">
  <metadata id="CorelCorpID_0Corel-Layer"/>
  <circle class="fil0" cx="127" cy="127" r="127"/>
  <rect class="fil1" x="223" y="110" width="169.874" height="80.1888" rx="11" ry="11"/>
  <text x="253" y="169"  class="fil2 fnt0">Link</text>
  <g id="_2131621190800">
   <path class="fil2" d="M135 189c7,2 13,2 18,-3 4,-4 4,-6 7,-8l14 24c-1,0 -6,-1 -8,-2 -12,-3 -10,-3 -13,6 -1,3 -2,6 -2,10l-12 -20c-1,-2 -2,-5 -4,-7zm-24 -143l3 0c2,0 5,1 7,2 6,3 7,3 13,0 2,-1 4,-2 6,-2l3 0c4,0 7,1 10,4 2,1 3,2 4,4 5,8 7,5 13,7 16,3 15,19 15,21 1,4 4,5 7,7 7,5 9,15 5,22 -3,7 -3,8 1,14 3,7 1,16 -5,21 -2,2 -4,2 -6,4 -5,6 1,12 -7,20 -3,3 -7,6 -13,6l14 24c1,1 4,7 4,8 0,2 -1,4 -3,4 -2,0 -4,-1 -6,-2l-15 -4 -4 13c-2,7 -1,10 -6,10 -2,0 -5,-7 -7,-9 -1,-3 -16,-29 -17,-30l0 0c-1,2 -2,3 -3,5l-6 10c-1,2 -2,3 -3,5l-10 17c0,1 -1,2 -2,2 -5,0 -4,-3 -6,-11l-3 -9c0,-1 0,-1 -1,-3 -3,1 -18,6 -21,6 -1,0 -3,-2 -3,-4 0,-1 3,-7 4,-8 2,-3 3,-6 5,-8l9 -16c-6,0 -10,-3 -13,-6 -4,-5 -4,-9 -4,-14 -1,-6 -6,-8 -9,-10 -6,-5 -8,-15 -4,-21 6,-12 -2,-9 -2,-23 0,-4 2,-8 4,-10 3,-4 6,-4 8,-6 3,-4 2,-9 3,-11 3,-16 19,-14 21,-15 1,0 3,-1 4,-2 1,-2 2,-3 3,-5 3,-4 8,-7 13,-7zm-8 170l-3 -15c-2,-5 -7,-2 -16,0 -1,1 -2,1 -4,1 3,-4 8,-13 11,-18l3 -6c2,1 2,2 3,4 4,5 9,8 16,8 3,0 4,0 6,-1 -1,2 -3,4 -4,7l-11 19c0,0 0,0 -1,1zm-41 -113c0,-1 1,-3 1,-4 4,-7 12,-5 14,-18 1,-6 -1,-7 3,-10 4,-5 9,-2 14,-4 10,-4 8,-9 13,-13 8,-4 12,3 19,3 11,0 10,-4 16,-4 7,0 9,6 10,8 9,12 21,2 25,13 1,3 -1,12 7,18 1,2 2,2 4,3 3,2 5,7 3,12 -1,4 -3,3 -3,12 0,5 3,8 3,10 2,5 0,10 -3,12 -1,1 -2,1 -4,2 -4,3 -6,7 -7,12 0,4 1,10 -6,13 -2,0 -4,0 -6,0 -4,1 -7,2 -9,4 -5,4 -6,11 -14,11 -5,0 -12,-8 -23,-2 -3,1 -6,4 -11,1 -2,-1 -3,-2 -4,-3 -3,-6 -6,-9 -14,-11 -4,0 -10,1 -13,-6 -1,-6 3,-13 -10,-21 -4,-2 -6,-7 -4,-12 1,-4 3,-3 3,-12 0,-6 -4,-9 -4,-14z"/>
   <path class="fil2" d="M102 73c0,8 7,2 13,1 11,-3 23,-2 33,3l5 4c4,2 9,7 12,11l3 5c9,17 5,40 -9,53 -2,2 -4,4 -6,5 -19,13 -43,11 -58,-5 -5,-4 -7,-8 -10,-13 -1,-3 -2,-6 -2,-9 -2,-7 -2,-15 0,-22 1,-4 3,-8 3,-10 0,-2 -1,-3 -4,-3 -5,0 -8,19 -8,23 0,10 1,16 5,25 1,1 1,2 2,4 8,14 27,26 44,26 10,0 17,-1 25,-5 8,-4 15,-9 20,-17 1,-2 2,-3 3,-4 10,-18 9,-40 -2,-57 -2,-3 -4,-5 -6,-7 -9,-9 -22,-16 -35,-16 -9,0 -16,1 -24,4 -2,1 -4,2 -4,4z"/>
   <path class="fil2" d="M103 111l9 0 0 28 -9 0 0 -28zm29 1c0,6 13,2 17,3 1,1 2,3 2,5l0 14c0,3 -1,5 -4,5 -3,0 -27,1 -27,-3l0 -24c0,-1 2,-1 4,-3 1,-2 2,-2 4,-4 2,-3 5,-8 7,-8 5,0 1,5 0,9 -1,4 -3,2 -3,6zm-15 -7c-2,-1 -2,-1 -4,-1 -6,0 -12,-1 -15,1 -1,1 -2,3 -2,4l0 31c0,8 10,7 16,7 2,0 5,-1 6,-3 6,4 20,3 28,3 7,0 13,-5 13,-11l0 -18c0,-4 -3,-7 -5,-8 -3,-2 -6,-2 -12,-2 3,-6 4,-12 -1,-17 -5,-3 -11,-1 -14,3 -1,1 -1,1 -2,2 -2,4 -5,6 -8,9z"/>
   <path class="fil2" d="M88 83c0,5 8,5 8,0 0,-4 -8,-5 -8,0z"/>
  </g>
 </g>
</svg>
