<?xml version="1.0" encoding="UTF-8"?>
<!DOCTYPE svg PUBLIC "-//W3C//DTD SVG 1.1//EN" "http://www.w3.org/Graphics/SVG/1.1/DTD/svg11.dtd">
<!-- Creator: CorelDRAW X7 -->
<svg xmlns="http://www.w3.org/2000/svg" xml:space="preserve" width="5000px" height="5000px" version="1.1" style="shape-rendering:geometricPrecision; text-rendering:geometricPrecision; image-rendering:optimizeQuality; fill-rule:evenodd; clip-rule:evenodd"
viewBox="0 0 1827 1827"
 xmlns:xlink="http://www.w3.org/1999/xlink">
 <defs>
  <style type="text/css">
   <![CDATA[
    .fil0 {fill:#333333}
   ]]>
  </style>
 </defs>
 <g id="Camada_x0020_1">
  <metadata id="CorelCorpID_0Corel-Layer"/>
  <g id="_2189391688768">
   <path class="fil0" d="M822 1674c0,-68 81,-117 143,-74 14,9 24,21 31,38 42,107 -99,172 -157,88 -7,-11 -17,-36 -17,-52zm-537 -216c0,-127 179,-129 179,0 0,110 -179,108 -179,0zm1074 -8c0,-49 42,-91 91,-91 117,0 126,182 0,182 -48,0 -91,-43 -91,-91zm224 -537c0,-73 95,-124 155,-64 84,85 -43,212 -127,128 -13,-12 -28,-41 -28,-64zm-1522 0c0,-73 95,-124 155,-64 84,85 -44,212 -128,128 -12,-12 -27,-41 -27,-64zm1119 -213c0,15 28,49 44,89 37,93 -2,94 85,94l0 61c-108,0 -34,14 -110,144 -36,61 -15,40 15,84 -3,4 -37,35 -42,38 -47,-31 -25,-46 -89,-9 -74,45 -139,35 -139,66l0 42 -61 0c0,-99 0,-37 -135,-105 -11,-6 -35,-24 -44,-24 -22,0 -33,23 -49,34 -4,-3 -35,-37 -38,-42 31,-47 46,-25 8,-89 -44,-74 -35,-139 -66,-139l-41 0 0 -61c66,0 59,4 73,-53 16,-70 51,-108 54,-121 7,-25 -22,-39 -32,-54l41 -43c54,79 59,2 192,-25 43,-9 37,-27 37,-69l57 0c0,103 17,37 146,109 10,6 18,13 29,17 27,10 39,-19 57,-31l43 41c-13,9 -35,27 -35,46zm-895 -319c0,-128 179,-128 179,0 0,110 -179,108 -179,0zm1165 83c-121,0 -112,-182 4,-182 76,0 124,95 64,155 -16,16 -38,27 -68,27zm-628 -312c0,-23 15,-51 27,-64 58,-57 153,-16 155,65 2,69 -92,126 -155,63 -13,-13 -27,-39 -27,-64zm-61 -11l0 23c0,61 64,135 122,137l0 156c-65,0 -61,1 -61,72 -31,1 -94,32 -114,46 -16,-11 -30,-38 -53,-38 -22,0 -31,20 -46,30l-108 -109c66,-98 -2,-237 -128,-237 -156,0 -212,210 -74,286 52,29 112,26 158,-5l109 108c-9,14 -29,23 -29,45 0,23 27,37 38,53 -14,20 -45,83 -46,114 -71,0 -72,-4 -72,61l-156 0c-2,-58 -76,-122 -137,-122l-23 0c-70,0 -141,71 -141,141l0 23c0,70 71,141 141,141l23 0c61,0 135,-64 137,-122l156 0c0,64 1,61 72,61 1,30 32,94 46,114 -13,19 -74,50 -8,95l-109 111c-47,-31 -107,-34 -159,-6 -134,75 -90,287 82,287 57,0 105,-41 126,-79 29,-51 25,-112 -5,-157l108 -109c14,9 23,29 45,29 23,0 37,-27 53,-38 20,13 83,45 114,46 0,71 -4,72 61,72l0 156c-58,1 -122,75 -122,137l0 23c0,70 71,141 141,141l23 0c70,0 141,-71 141,-141l0 -23c0,-62 -64,-136 -122,-137l0 -156c64,0 61,-1 61,-72 30,-1 94,-33 114,-46 19,13 50,74 95,8l111 109c-31,47 -34,107 -6,158 75,134 287,90 287,-81 0,-106 -132,-191 -236,-122l-111 -109c65,-46 8,-74 -7,-96 14,-26 43,-80 46,-114 73,0 72,1 72,-61l156 0c1,58 75,122 137,122l23 0c70,0 141,-71 141,-141l0 -23c0,-70 -71,-141 -141,-141l-23 0c-62,0 -136,64 -137,122l-156 0c0,-65 -1,-61 -72,-61 -1,-31 -33,-94 -46,-114 11,-16 38,-30 38,-53 0,-22 -20,-31 -30,-46l109 -108c98,66 237,-2 237,-128 0,-156 -210,-212 -287,-74 -28,52 -25,112 5,158l-107 109c-27,-17 -30,-31 -50,-27 -22,4 -32,25 -48,36 -12,-3 -40,-21 -53,-27 -16,-7 -41,-17 -61,-19 0,-73 1,-72 -61,-72l0 -156c58,-2 122,-76 122,-137l0 -23c0,-70 -71,-141 -141,-141l-23 0c-70,0 -141,71 -141,141z"/>
   <path class="fil0" d="M731 913c0,-23 9,-56 16,-74 25,-62 98,-108 166,-108 158,0 245,195 129,311 -55,55 -130,67 -203,37 -19,-7 -41,-24 -54,-37 -32,-33 -54,-81 -54,-129zm-61 -15l0 31c0,115 113,228 228,228l31 0c115,0 228,-113 228,-228l0 -31c0,-115 -113,-228 -228,-228l-31 0c-115,0 -228,113 -228,228z"/>
  </g>
 </g>
</svg>
