<?xml version="1.0" encoding="UTF-8"?>
<!DOCTYPE svg PUBLIC "-//W3C//DTD SVG 1.1//EN" "http://www.w3.org/Graphics/SVG/1.1/DTD/svg11.dtd">
<!-- Creator: CorelDRAW X7 -->
<svg xmlns="http://www.w3.org/2000/svg" xml:space="preserve" width="5000px" height="3234px" version="1.1" style="shape-rendering:geometricPrecision; text-rendering:geometricPrecision; image-rendering:optimizeQuality; fill-rule:evenodd; clip-rule:evenodd"
viewBox="0 0 334 216"
 xmlns:xlink="http://www.w3.org/1999/xlink">
 <defs>
  <style type="text/css">
   <![CDATA[
    .fil1 {fill:#000066}
    .fil0 {fill:#003399}
    .fil2 {fill:white}
    .fnt0 {font-weight:bold;font-size:44.0631px;font-family:'Arial'}
   ]]>
  </style>
 </defs>
 <g id="Camada_x0020_1">
  <metadata id="CorelCorpID_0Corel-Layer"/>
  <circle class="fil0" cx="108" cy="108" r="108"/>
  <rect class="fil1" x="190" y="94" width="144.372" height="68.1506" rx="9" ry="9"/>
  <text x="215" y="144"  class="fil2 fnt0">Link</text>
  <g id="_2131618291376">
   <path class="fil2" d="M84 162l0 -54 81 0 0 54c0,2 -1,3 -3,3l-76 0c-1,0 -2,-1 -2,-3zm0 -68c0,-1 1,-2 2,-2l76 0c2,0 3,1 3,2l0 10 -81 0 0 -10zm-4 -1l0 70c0,3 3,6 5,6l78 0c3,0 6,-3 6,-6l0 -70c0,-2 -3,-5 -6,-5l-78 0c-2,0 -5,3 -5,5z"/>
   <path class="fil2" d="M52 54c0,-2 0,-2 2,-2l76 0c1,0 2,0 2,2l0 10 -80 0 0 -10zm-5 -1l0 70c0,2 3,5 6,5l21 0c1,0 2,-1 2,-2 0,-2 -3,-2 -5,-2l-14 0c-3,0 -5,0 -5,-2l0 -54 80 0 0 14c0,2 3,2 4,1 0,0 0,0 0,-1l0 -29c0,-3 -3,-6 -5,-6l-78 0c-3,0 -6,3 -6,6z"/>
   <path class="fil2" d="M125 123c0,2 2,2 3,2 1,0 4,-5 8,-5 2,0 4,3 4,5 0,2 -1,3 -2,5l-8 7c-1,2 -2,3 -5,3 -2,0 -3,-1 -4,-1 -1,0 -2,1 -2,2 0,3 4,3 7,3 4,0 8,-5 11,-7 2,-3 7,-7 7,-11 0,-3 0,-5 -2,-7 -4,-4 -9,-4 -13,-1 -1,1 -1,2 -2,2 -1,1 -2,2 -2,3z"/>
   <path class="fil2" d="M104 146c0,3 0,6 3,8 4,4 9,3 13,-1 1,-1 3,-2 3,-3 0,0 0,-5 -5,0 -1,1 -2,2 -4,2 -3,1 -10,-3 -3,-9l7 -8c2,-1 3,-3 5,-3 2,0 3,2 4,2 2,0 3,-3 2,-4 -3,-3 -9,-3 -13,1 -2,2 -10,10 -11,12 0,1 -1,2 -1,3z"/>
   <path class="fil2" d="M144 57c0,2 2,3 4,5 1,1 3,4 4,4 2,0 3,-1 3,-2 0,-2 -3,-3 -4,-4 5,0 9,0 9,6 1,2 0,5 0,7 0,2 0,5 1,6 1,1 4,1 4,-1l0 -13c0,-3 -2,-6 -4,-7 -3,-3 -5,-2 -10,-2 2,-3 3,-2 3,-5 0,-1 -1,-2 -2,-2 -1,0 -8,7 -8,8z"/>
   <path class="fil2" d="M49 144c0,2 1,2 3,2 1,0 3,-2 4,-3 0,4 -1,12 0,15 1,3 5,7 9,7 5,0 7,0 7,-3 0,0 -1,-1 -1,-1 -1,-1 -3,0 -5,-1 -3,0 -4,-1 -5,-2 -2,-3 -1,-10 -1,-15 1,1 2,3 3,4 2,0 4,-2 2,-4 -1,-1 -6,-7 -7,-7 -2,0 -9,7 -9,8z"/>
   <path class="fil2" d="M68 77c0,1 0,3 1,3l38 0c0,0 0,-1 1,-1 0,0 0,-3 -2,-3l-37 0c-1,0 -1,0 -1,1z"/>
   <path class="fil2" d="M101 60l26 0c2,0 2,-4 0,-4l-26 0c0,0 -1,1 -1,2 0,0 1,2 1,2z"/>
   <path class="fil2" d="M132 97c0,1 0,3 2,3l24 0c3,0 3,-4 1,-4l-25 0c-1,0 -2,1 -2,1z"/>
   <path class="fil2" d="M59 102c0,1 1,2 2,2l13 0c2,0 2,-4 0,-4l-13 0c-1,0 -2,1 -2,2z"/>
   <path class="fil2" d="M60 89c0,1 0,3 1,3l13 0c2,0 2,-4 0,-4l-13 0c-1,0 -1,1 -1,1z"/>
   <path class="fil2" d="M60 114c0,1 -1,2 1,2l13 0c2,0 2,-4 0,-4l-13 0c-1,0 -1,1 -1,2z"/>
   <path class="fil2" d="M112 77c0,1 0,3 2,3l9 0c2,0 2,-4 0,-4l-9 0c-1,0 -2,0 -2,1z"/>
   <path class="fil2" d="M56 58c0,2 4,2 4,0 0,-3 -4,-3 -4,0z"/>
   <path class="fil2" d="M64 58c0,2 4,2 4,0 0,-3 -4,-3 -4,0z"/>
   <path class="fil2" d="M72 58c0,2 4,2 4,0 0,-3 -4,-3 -4,0z"/>
   <path class="fil2" d="M88 98c0,3 4,3 4,0 0,-3 -4,-3 -4,0z"/>
   <path class="fil2" d="M96 98c0,3 4,3 4,0 0,-3 -4,-3 -4,0z"/>
   <path class="fil2" d="M104 98c0,3 4,3 4,0 0,-3 -4,-3 -4,0z"/>
  </g>
 </g>
</svg>
