<svg xmlns="http://www.w3.org/2000/svg" width="68.003" height="69.077" viewBox="0 0 68.003 69.077"><defs><style>.a{fill:#FF6D63;}</style></defs><g transform="translate(0)"><g transform="translate(0)"><path class="a" d="M48.635,0A23.362,23.362,0,0,0,26.8,31.631L4.476,53.957a1.7,1.7,0,0,0-.5,1.2V67.375a1.7,1.7,0,0,0,1.7,1.7H15.746a1.7,1.7,0,0,0,1.2-.5l3.392-3.387a1.7,1.7,0,0,0,.5-1.2V59.822H25a1.7,1.7,0,0,0,1.7-1.7V56.453H28.37a1.7,1.7,0,0,0,1.7-1.7V51.091h3.661a1.7,1.7,0,0,0,1.2-.5l5.413-5.413A23.349,23.349,0,1,0,48.635,0Zm0,43.291a19.792,19.792,0,0,1-8.006-1.672,1.7,1.7,0,0,0-1.871.341l-.016.014-5.714,5.714H28.37a1.7,1.7,0,0,0-1.7,1.7v3.661H25a1.7,1.7,0,0,0-1.7,1.7V56.42H19.139a1.7,1.7,0,0,0-1.7,1.7v5.161l-2.4,2.391H7.381v-2.4l20.8-20.8a1.531,1.531,0,0,0-2.166-2.166L7.381,58.938V55.865L30.006,33.238l.014-.015a1.7,1.7,0,0,0,.341-1.872A19.948,19.948,0,1,1,48.635,43.291Z" transform="translate(-3.978)"></path></g></g><g transform="translate(45.389 9.868)"><path class="a" d="M346.774,73.144a6.373,6.373,0,1,0,6.373,6.373A6.38,6.38,0,0,0,346.774,73.144Zm0,9.343a2.97,2.97,0,1,1,2.97-2.97A2.974,2.974,0,0,1,346.774,82.487Z" transform="translate(-340.401 -73.144)"></path></g></svg>