<?xml version="1.0" encoding="UTF-8"?>
<!DOCTYPE svg PUBLIC "-//W3C//DTD SVG 1.1//EN" "http://www.w3.org/Graphics/SVG/1.1/DTD/svg11.dtd">
<!-- Creator: CorelDRAW X7 -->
<svg xmlns="http://www.w3.org/2000/svg" xml:space="preserve" width="5000px" height="4153px" version="1.1" style="shape-rendering:geometricPrecision; text-rendering:geometricPrecision; image-rendering:optimizeQuality; fill-rule:evenodd; clip-rule:evenodd"
viewBox="0 0 5073 4213"
 xmlns:xlink="http://www.w3.org/1999/xlink">
 <defs>
  <style type="text/css">
   <![CDATA[
    .fil0 {fill:black}
   ]]>
  </style>
 </defs>
 <g id="Camada_x0020_1">
  <metadata id="CorelCorpID_0Corel-Layer"/>
  <path class="fil0" d="M969 2123c0,-386 79,-662 282,-956 154,-222 374,-396 617,-518 490,-245 1115,-173 1564,137 81,56 138,109 205,176 268,267 459,653 459,1050 0,364 -56,562 -205,826 -32,55 45,167 106,72 143,-245 226,-532 226,-843 0,-929 -761,-1690 -1691,-1690 -928,0 -1690,761 -1690,1690 0,504 206,745 206,857 0,54 -25,117 -38,160 -16,51 -33,98 -50,149 -61,184 -151,330 -37,452 117,125 277,32 442,-23 133,-45 210,-86 322,-93 26,-20 -20,-116 -49,-124 -238,39 -645,297 -645,106 0,-143 226,-522 166,-713 -25,-78 -84,-185 -128,-325 -31,-100 -62,-259 -62,-390z"/>
  <path class="fil0" d="M485 1960c0,328 30,559 154,854 54,130 50,52 -54,365 -71,214 -121,345 -23,569 74,170 281,307 478,307 157,0 239,-43 372,-88l245 -82c35,-7 142,77 407,131 77,11 70,-118 5,-123 -61,-15 -133,-40 -187,-60 -274,-100 -121,-112 -513,19 -223,74 -414,152 -616,-49 -214,-211 -96,-442 -25,-655 20,-61 38,-116 57,-173 49,-144 -14,-113 -80,-338l-52 -186c-75,-300 -58,-653 27,-946 84,-288 196,-474 369,-694 56,-71 118,-132 184,-190l170 -140c54,-44 21,-116 -37,-116 -45,0 -226,177 -259,202l-148 161c-16,18 -22,23 -37,43 -12,17 -21,28 -34,45 -22,26 -43,59 -63,88 -193,277 -340,704 -340,1056z"/>
  <path class="fil0" d="M1548 278c0,125 158,23 170,18 111,-52 228,-90 348,-120 91,-23 162,-30 265,-45 47,-6 94,-1 141,-9 65,-9 95,4 147,5 519,13 952,261 1276,581 138,137 297,382 371,558 16,39 29,70 43,108 49,134 109,368 112,507 5,187 17,168 -9,387 -23,193 -90,424 -173,589 -69,136 -198,347 -308,454 -38,38 -115,111 -38,154 61,34 138,-79 173,-121 277,-329 482,-778 482,-1241 0,-508 -87,-776 -315,-1161 -79,-135 -137,-181 -218,-282 -38,-48 -143,-148 -189,-184 -177,-136 -233,-184 -450,-288 -244,-117 -516,-180 -792,-188l-125 0c-289,8 -577,77 -834,204 -30,15 -77,34 -77,74z"/>
  <g id="_2189391688704">
   <path class="fil0" d="M1977 1141l0 373c0,74 129,121 127,-55 0,-64 0,-127 0,-191 0,-96 -34,-254 143,-254 144,0 127,162 127,231l0 904c0,67 -3,119 64,119 66,0 63,-59 63,-127 0,-72 -12,-317 16,-365 57,-99 191,-92 239,0 26,51 15,290 15,365 -1,68 -3,127 63,127 70,0 64,-57 64,-127 0,-63 0,-127 0,-190 0,-73 -21,-246 135,-246 160,0 135,166 135,246 0,133 -27,317 63,317 27,0 50,-6 61,-42 15,-56 -16,-384 19,-450 62,-116 261,-93 261,88l0 1547c0,87 -22,105 -52,162 -18,32 -75,113 -75,148l0 436c0,51 115,83 120,-15l-1 -350c0,-54 1,-54 23,-89 41,-66 104,-161 104,-244l0 -1643c0,-93 -79,-184 -169,-219 -110,-43 -235,5 -283,76 -73,-49 -149,-140 -314,-68 -34,14 -65,41 -83,68 -47,-32 -70,-71 -151,-86 -82,-16 -131,-1 -190,31 0,-133 14,-371 -2,-491 -46,-349 -522,-287 -522,14z"/>
   <path class="fil0" d="M1977 2387c-139,-73 -269,-358 -484,-262 -61,28 -104,74 -124,147 -23,87 8,136 39,200 18,35 31,54 48,87 17,33 30,60 45,90 30,60 57,113 90,172 45,82 55,154 116,154 125,0 25,-154 -4,-202l-152 -293c-39,-79 -99,-159 -41,-218 86,-88 167,20 211,64 25,25 40,33 64,55l190 183c57,52 129,49 129,-50l0 -722c0,-78 -67,-112 -111,-64 -31,34 -16,146 -16,207 0,151 0,302 0,452z"/>
   <path class="fil0" d="M1763 3141c0,38 117,249 141,279 38,47 76,70 107,100 19,19 32,33 51,52l219 202c28,27 37,23 38,73 2,70 0,144 -1,215 0,73 -9,151 64,151 38,0 63,-25 63,-64l0 -373c0,-25 -91,-104 -124,-137 -21,-20 -32,-23 -52,-43l-276 -264c-36,-57 -105,-217 -129,-237 -39,-32 -101,-10 -101,46z"/>
  </g>
  <path class="fil0" d="M206 1534c54,0 72,-18 72,-72 0,-19 -146,-190 -191,-190 -28,0 -62,34 -61,63 1,30 30,52 49,77 18,23 106,122 131,122z"/>
  <path class="fil0" d="M4866 1534c-53,0 -71,-18 -71,-72 0,-19 146,-190 190,-190 29,0 63,34 62,63 -1,30 -30,52 -49,77 -18,23 -107,122 -132,122z"/>
  <path class="fil0" d="M87 2351c46,0 191,-178 191,-190 0,-49 -6,-72 -64,-72 -44,0 -51,30 -73,54 -30,33 -111,100 -115,138 -3,32 29,70 61,70z"/>
  <path class="fil0" d="M4985 2351c-45,0 -190,-178 -190,-190 0,-49 6,-72 63,-72 45,0 51,30 74,54 29,33 111,100 115,138 3,32 -30,70 -62,70z"/>
  <path class="fil0" d="M0 1788c0,82 102,63 198,63 113,0 99,-127 16,-127 -111,0 -214,-21 -214,64z"/>
  <path class="fil0" d="M5073 1788c0,82 -102,63 -199,63 -112,0 -98,-127 -16,-127 111,0 215,-21 215,64z"/>
 </g>
</svg>
