<?xml version="1.0" encoding="UTF-8"?>
<!DOCTYPE svg PUBLIC "-//W3C//DTD SVG 1.1//EN" "http://www.w3.org/Graphics/SVG/1.1/DTD/svg11.dtd">
<!-- Creator: CorelDRAW X7 -->
<svg xmlns="http://www.w3.org/2000/svg" xml:space="preserve" width="5000px" height="5000px" version="1.1" style="shape-rendering:geometricPrecision; text-rendering:geometricPrecision; image-rendering:optimizeQuality; fill-rule:evenodd; clip-rule:evenodd"
viewBox="0 0 4566 4566"
 xmlns:xlink="http://www.w3.org/1999/xlink">
 <defs>
  <style type="text/css">
   <![CDATA[
    .fil0 {fill:#333333}
   ]]>
  </style>
 </defs>
 <g id="Camada_x0020_1">
  <metadata id="CorelCorpID_0Corel-Layer"/>
  <g id="_2189391738944">
   <path class="fil0" d="M3353 3549l0 838 -696 0c17,-14 29,-25 50,-39l171 -124c133,-99 113,-62 191,-192l141 -243c22,-39 113,-206 143,-240zm-865 731l36 -348c35,3 231,119 249,143 -98,66 -187,140 -285,205zm428 -348c-23,-6 -60,-29 -82,-42l-257 -145c116,-219 280,-479 404,-702l734 -1272c28,-51 53,-93 82,-141 29,-47 52,-97 82,-141 37,9 127,70 167,92l172 95c-29,43 -51,90 -79,136 -28,47 -57,95 -82,141 -52,96 -109,185 -163,282l-978 1697zm1266 -2791c107,0 196,89 196,161 0,175 -40,121 -62,214 -38,-3 -132,-69 -170,-89 -28,-16 -54,-30 -85,-49 -30,-18 -58,-32 -84,-49 16,-70 103,-188 205,-188zm-4182 -1052l0 4387c0,45 32,90 80,90l3371 0c93,0 80,-95 80,-188l0 -1079c-1,-61 0,-69 24,-110 18,-30 31,-55 49,-84l200 -344c68,-117 126,-224 195,-341l448 -773c70,-130 119,-173 119,-327 0,-180 -171,-357 -348,-357 -81,0 -124,-1 -203,38l-91 70c-96,100 -355,613 -393,641 0,-104 0,-208 0,-312 0,-144 26,-241 -98,-241 -90,0 -80,98 -80,187l-1 677c-6,35 -478,840 -548,959 -133,224 -264,469 -398,690 -70,115 -71,328 -86,467 -9,77 -13,181 -28,248l-2114 0 0 -4209 3175 0 0 268c0,121 178,115 178,9l0 -375c0,-44 -36,-80 -80,-80l-3371 0c-48,0 -80,44 -80,89z"/>
   <path class="fil0" d="M776 2532c0,46 32,90 80,90l1819 0c108,0 108,-179 0,-179l-1819 0c-48,0 -80,44 -80,89z"/>
   <path class="fil0" d="M776 1034c0,45 32,90 80,90l1819 0c108,0 108,-179 0,-179l-1819 0c-48,0 -80,44 -80,89z"/>
   <path class="fil0" d="M776 1534c0,45 32,89 80,89l1819 0c108,0 108,-178 0,-178l-1819 0c-48,0 -80,44 -80,89z"/>
   <path class="fil0" d="M776 3531c0,45 32,89 80,89l803 0c107,0 107,-178 0,-178l-803 0c-48,0 -80,44 -80,89z"/>
   <path class="fil0" d="M1917 2024c0,55 23,98 80,98l678 0c108,0 108,-178 0,-178l-678 0c-44,0 -80,36 -80,80z"/>
   <path class="fil0" d="M776 2033c0,45 32,89 80,89l615 0c106,0 106,-178 0,-178l-615 0c-48,0 -80,44 -80,89z"/>
   <path class="fil0" d="M1721 3121l571 0c107,0 107,-178 0,-178l-571 0c-112,0 -110,178 0,178z"/>
   <path class="fil0" d="M776 3032c0,45 32,89 80,89l490 0c39,0 107,-79 50,-148 -8,-11 -35,-30 -50,-30l-490 0c-48,0 -80,44 -80,89z"/>
   <path class="fil0" d="M3353 847c0,112 178,132 178,-9 0,-106 -178,-112 -178,9z"/>
  </g>
 </g>
</svg>
