<?xml version="1.0" encoding="UTF-8"?>
<!DOCTYPE svg PUBLIC "-//W3C//DTD SVG 1.1//EN" "http://www.w3.org/Graphics/SVG/1.1/DTD/svg11.dtd">
<!-- Creator: CorelDRAW X7 -->
<svg xmlns="http://www.w3.org/2000/svg" xml:space="preserve" width="5000px" height="3342px" version="1.1" style="shape-rendering:geometricPrecision; text-rendering:geometricPrecision; image-rendering:optimizeQuality; fill-rule:evenodd; clip-rule:evenodd"
viewBox="0 0 461 309"
 xmlns:xlink="http://www.w3.org/1999/xlink">
 <defs>
  <style type="text/css">
   <![CDATA[
    .fil1 {fill:#821CC3}
    .fil0 {fill:#FBD921}
    .fnt0 {font-weight:bold;font-size:62.9269px;font-family:'Arial'}
   ]]>
  </style>
 </defs>
 <g id="Camada_x0020_1">
  <metadata id="CorelCorpID_0Corel-Layer"/>
  <circle class="fil0" cx="154" cy="154" r="154"/>
  <rect class="fil1" x="255" y="134" width="206.178" height="97.3264" rx="13" ry="13"/>
  <text x="297" y="205"  class="fil0 fnt0">Mail</text>
  <g id="_2131619199104">
   <path class="fil1" d="M73 230l0 -81c2,0 3,1 4,2 1,1 2,1 3,2 3,2 5,3 7,4l41 27c-1,0 -10,8 -12,10l-14 12c0,0 0,1 -1,1 -1,1 -1,1 -2,2 -4,3 -14,11 -17,14 -1,1 -1,1 -2,2 -1,1 -5,5 -7,5zm108 -47l54 -34 0 80 -10 -8c-1,-1 -1,-1 -2,-2l-17 -14c0,-1 0,-1 -1,-2l-14 -11c-1,-2 -9,-8 -10,-9zm-83 -27l0 -62 112 0 0 62c0,1 -2,2 -3,2l-17 11c-3,2 -5,3 -7,5 -7,4 -24,15 -29,18l-52 -34c-1,0 -4,-1 -4,-2zm119 -4l0 -23 10 8c1,1 1,1 2,2 0,1 3,3 3,3l-15 10zm-126 -23l0 23c-1,-1 -13,-9 -15,-10l15 -13zm63 -55l14 13 -28 0c1,-1 3,-3 4,-3 0,-1 1,-1 1,-2l9 -8zm-63 46l-17 15c-1,1 -1,1 -2,1 -1,2 -5,5 -5,7l0 92c0,3 3,6 8,6l62 0c4,0 5,-1 5,-4 0,-4 -7,-3 -13,-3 -16,0 -32,0 -49,0 1,-1 3,-2 4,-3l6 -6c9,-6 22,-19 31,-26 2,-2 4,-4 6,-6l7 -6 7 5c14,9 12,10 24,2l10 -7c0,1 1,1 2,1l10 9c1,1 1,1 2,2l22 19c0,0 0,0 1,1l4 3c1,1 1,1 2,2l12 10 -58 0c-4,0 -6,1 -6,4 0,2 2,3 5,3l63 0c4,0 8,-2 8,-6l0 -92c0,-2 -4,-5 -6,-7l-19 -16c0,-5 1,-25 0,-28 -2,-5 -6,-5 -10,-5 -5,0 -9,0 -14,0 -3,0 -13,1 -14,-1l-20 -16c-5,-5 -8,-1 -12,1 0,1 -1,1 -2,2 0,1 -1,1 -1,1l-8 7c-1,1 -1,1 -2,2 -7,5 -1,4 -18,4 -4,0 -18,-1 -21,1 -1,0 -3,2 -3,3 -1,4 -1,24 -1,29z"/>
   <path class="fil1" d="M136 152c5,0 6,-2 7,0 0,1 0,3 0,4 1,3 2,7 -2,7 -3,0 -4,-2 -4,-4 0,-2 -1,-5 -1,-7zm-24 -15c2,0 5,0 7,-1 0,2 1,6 1,7 -8,2 -7,1 -7,-2 0,-2 -1,-2 -1,-4zm13 -6c4,0 19,-3 22,-3 0,4 2,11 2,15 -2,0 -4,1 -5,1 -2,0 -4,0 -6,1l-10 1c0,-1 -3,-15 -3,-15zm28 -6l11 -8c2,-1 10,-8 11,-8 0,3 1,7 2,11l5 31 -24 -7c-3,-1 -2,-1 -3,-7l-2 -12zm-48 11c0,3 1,5 1,7 2,11 8,7 15,7 1,0 1,1 2,1 0,1 1,1 1,2 2,1 3,1 5,1 0,2 2,9 3,11 4,10 19,6 19,-4 0,-4 -1,-8 -1,-11 4,0 2,-1 8,1l21 7c4,1 7,0 9,-4 1,-2 1,-3 0,-5 -1,-8 -2,-16 -3,-24 -1,-4 -2,-8 -2,-12 -1,-4 -1,-8 -4,-10 -4,-3 -7,-1 -9,1l-20 15c-2,1 -2,1 -5,2 -4,0 -8,1 -12,1 -3,1 -10,2 -12,3 -2,1 -1,2 -3,4 0,1 -1,1 -5,1 -2,1 -4,1 -5,2 -1,1 -3,3 -3,4z"/>
   <path class="fil1" d="M192 127c0,1 2,3 3,3 1,0 4,-1 5,-1 3,-1 4,-5 1,-6 -2,-1 -6,0 -7,0 -1,1 -2,2 -2,4z"/>
   <path class="fil1" d="M194 140c0,1 0,2 2,3 0,0 4,1 4,1 4,0 6,-5 2,-7 -3,-1 -8,-2 -8,3z"/>
   <path class="fil1" d="M190 115c0,1 1,3 3,3 2,0 3,-1 4,-2 4,-3 2,-7 -2,-7 -1,0 -2,1 -3,2 -1,1 -2,2 -2,4z"/>
   <path class="fil1" d="M151 237c0,5 7,5 7,0 0,-4 -7,-4 -7,0z"/>
  </g>
 </g>
</svg>
