<?xml version="1.0" encoding="UTF-8"?>
<!DOCTYPE svg PUBLIC "-//W3C//DTD SVG 1.1//EN" "http://www.w3.org/Graphics/SVG/1.1/DTD/svg11.dtd">
<!-- Creator: CorelDRAW X7 -->
<svg xmlns="http://www.w3.org/2000/svg" xml:space="preserve" width="5000px" height="5575px" version="1.1" style="shape-rendering:geometricPrecision; text-rendering:geometricPrecision; image-rendering:optimizeQuality; fill-rule:evenodd; clip-rule:evenodd"
viewBox="0 0 3181 3547"
 xmlns:xlink="http://www.w3.org/1999/xlink">
 <defs>
  <style type="text/css">
   <![CDATA[
    .fil0 {fill:black}
   ]]>
  </style>
 </defs>
 <g id="Camada_x0020_1">
  <metadata id="CorelCorpID_0Corel-Layer"/>
  <g id="_1531025697248">
   <path class="fil0" d="M0 526l0 2494c0,271 256,527 526,527l659 0c50,0 117,-67 117,-118 0,-58 -3,-108 -75,-146 -50,-26 -453,-13 -527,-13 -143,0 -220,9 -306,-55 -70,-51 -117,-124 -117,-243l0 -2397c0,-177 118,-298 298,-298l1669 0c88,0 145,30 194,70 51,42 80,95 92,178 14,105 7,1120 5,1339 -2,214 277,186 277,20l0 -1351c0,-280 -257,-533 -526,-533l-1760 0c-270,0 -526,256 -526,526z"/>
   <path class="fil0" d="M1586 2875c78,-116 287,-286 423,-347 276,-123 533,17 725,210 24,24 43,42 66,66 20,20 46,49 61,71 -29,42 -85,95 -123,133 -197,197 -446,333 -724,215 -145,-61 -349,-231 -428,-348zm674 672l-73 0c-106,-5 -213,-31 -314,-79 -76,-35 -123,-67 -187,-111 -58,-40 -112,-88 -164,-134 -52,-46 -136,-152 -183,-205 -61,-67 -71,-95 -71,-164 0,-54 129,-193 164,-230 131,-141 260,-262 445,-345 141,-63 219,-76 381,-76 253,0 493,162 671,327 48,45 65,73 93,101l113 136c39,56 71,117 18,192l-183 219 -153 138c-55,47 -178,122 -242,152 -102,48 -208,74 -315,79z"/>
   <path class="fil0" d="M554 949l0 42c0,50 67,117 118,117l1455 0c174,0 174,-277 0,-277l-1455 0c-51,0 -118,67 -118,118z"/>
   <path class="fil0" d="M554 1503l0 42c0,51 67,118 118,118l1455 0c174,0 174,-278 0,-278l-1455 0c-51,0 -118,67 -118,118z"/>
   <path class="fil0" d="M554 2057l0 42c0,51 67,118 118,118l769 0c51,0 118,-67 118,-118l0 -42c0,-50 -67,-117 -118,-117l-769 0c-51,0 -118,67 -118,117z"/>
   <path class="fil0" d="M1967 2854l0 42c0,119 123,242 243,242 86,0 146,-14 208,-76 165,-165 41,-450 -167,-450 -89,0 -143,11 -208,75 -34,34 -76,100 -76,167z"/>
  </g>
 </g>
</svg>
