<?xml version="1.0" encoding="UTF-8"?>
<!DOCTYPE svg PUBLIC "-//W3C//DTD SVG 1.1//EN" "http://www.w3.org/Graphics/SVG/1.1/DTD/svg11.dtd">
<!-- Creator: CorelDRAW X7 -->
<svg xmlns="http://www.w3.org/2000/svg" xml:space="preserve" width="5000px" height="3588px" version="1.1" style="shape-rendering:geometricPrecision; text-rendering:geometricPrecision; image-rendering:optimizeQuality; fill-rule:evenodd; clip-rule:evenodd"
viewBox="0 0 2113 1516"
 xmlns:xlink="http://www.w3.org/1999/xlink">
 <defs>
  <style type="text/css">
   <![CDATA[
    .fil0 {fill:#3A559F}
    .fil2 {fill:#DCA100}
    .fil1 {fill:#FDFEFE}
    .fil3 {fill:white}
    .fnt0 {font-weight:bold;font-size:308.998px;font-family:'Arial'}
   ]]>
  </style>
 </defs>
 <g id="Camada_x0020_1">
  <metadata id="CorelCorpID_0Corel-Layer"/>
  <g id="_2131611960752">
   <path class="fil0" d="M646 641c0,-122 -19,-283 123,-340 48,-18 84,-17 137,-17 92,0 87,-8 87,68 0,97 9,94 -60,94 -133,0 -113,38 -113,195 46,0 91,0 137,-1 25,0 40,1 41,26 1,15 -4,43 -6,59 -7,66 -2,96 -38,98 -42,1 -92,-4 -133,0 0,83 0,166 0,249 0,42 -1,83 -1,125 1,25 1,35 -26,35l-125 0c-26,-1 -23,-15 -23,-38l0 -371c-23,0 -91,3 -109,-1 -29,-7 -19,-61 -19,-90 0,-111 -16,-91 128,-91zm-646 94c0,112 7,175 43,279 18,51 34,80 59,125 5,11 11,18 17,28 24,41 70,96 102,128 31,31 63,57 99,82 44,32 66,44 115,68 70,35 192,71 297,71l4 0c83,0 123,0 208,-21 25,-7 46,-14 70,-22 97,-34 157,-76 233,-134 152,-117 269,-355 269,-554 0,-137 -16,-235 -70,-348 -82,-171 -198,-281 -365,-366 -80,-40 -205,-71 -296,-71 -114,0 -177,6 -283,43 -21,8 -46,17 -65,27l-87 49c-125,74 -215,190 -280,318 -41,81 -70,206 -70,298z"/>
   <path class="fil1" d="M646 641c-144,0 -128,-20 -128,91 0,29 -10,83 19,90 18,4 86,1 109,1l0 371c0,23 -3,37 23,38l125 0c27,0 27,-10 26,-35 0,-42 1,-83 1,-125 0,-83 0,-166 0,-249 41,-4 91,1 133,0 36,-2 31,-32 38,-98 2,-16 7,-44 6,-59 -1,-25 -16,-26 -41,-26 -46,1 -91,1 -137,1 0,-157 -20,-195 113,-195 69,0 60,3 60,-94 0,-76 5,-68 -87,-68 -53,0 -89,-1 -137,17 -142,57 -123,218 -123,340z"/>
  </g>
  <g id="_2131611962544">
   <rect class="fil2" x="1100" y="690" width="1012" height="478" rx="64" ry="64"/>
   <text x="1347" y="1038"  class="fil3 fnt0">Ads</text>
  </g>
 </g>
</svg>
