<?xml version="1.0" encoding="UTF-8"?>
<!DOCTYPE svg PUBLIC "-//W3C//DTD SVG 1.1//EN" "http://www.w3.org/Graphics/SVG/1.1/DTD/svg11.dtd">
<!-- Creator: CorelDRAW X7 -->
<svg xmlns="http://www.w3.org/2000/svg" xml:space="preserve" width="5000px" height="3429px" version="1.1" style="shape-rendering:geometricPrecision; text-rendering:geometricPrecision; image-rendering:optimizeQuality; fill-rule:evenodd; clip-rule:evenodd"
viewBox="0 0 1683 1154"
 xmlns:xlink="http://www.w3.org/1999/xlink">
 <defs>
  <style type="text/css">
   <![CDATA[
    .fil4 {fill:#0B7243}
    .fil3 {fill:#13A564}
    .fil2 {fill:#4D7BBD}
    .fil1 {fill:#CCCCCC}
    .fil5 {fill:#DCA100}
    .fil0 {fill:#E6E6E6}
    .fil6 {fill:white}
    .fnt0 {font-weight:bold;font-size:234.523px;font-family:'Arial'}
   ]]>
  </style>
 </defs>
 <g id="Camada_x0020_1">
  <metadata id="CorelCorpID_0Corel-Layer"/>
  <path class="fil0" d="M587 1154c-5,-10 -60,-62 -73,-75l-146 -146c-13,-13 -24,-25 -37,-38 -12,-12 -26,-24 -37,-37 18,-65 69,-208 93,-282l87 -264c1,-3 5,-16 9,-17l188 0 4 0c33,38 74,77 111,114l284 284c18,18 40,39 56,58l23 -91c3,-20 4,-40 5,-60l0 -47c-4,-108 -38,-210 -101,-303l-25 -34c-36,-44 -72,-78 -118,-111 -22,-16 -46,-30 -71,-43 -74,-37 -156,-58 -239,-62l-55 0c-75,4 -150,22 -218,56 -47,24 -65,36 -107,67 -20,15 -41,36 -59,53l-27 30c-46,59 -77,103 -104,185 -10,30 -17,58 -23,92 -4,24 -6,50 -7,76l0 29c2,83 21,168 54,235 7,13 13,26 20,38 23,39 32,51 58,84 41,50 101,103 156,132 102,55 180,77 299,77z"/>
  <path class="fil1" d="M670 835c-15,-7 -22,-39 -29,-58l-64 -193c-7,9 -61,182 -70,209 -12,37 -30,64 -74,66 -22,1 -122,3 -139,-1 11,13 25,25 37,37 13,13 24,25 37,38l146 146c13,13 68,65 73,75 153,0 271,-59 379,-149 33,-27 86,-95 107,-131 13,-23 54,-102 53,-123 -16,-19 -38,-40 -56,-58l-284 -284c-37,-37 -78,-76 -111,-114l185 563c-19,4 -84,1 -107,1 -32,0 -70,0 -83,-24z"/>
  <path class="fil2" d="M294 858c17,4 117,2 139,1 44,-2 62,-29 74,-66 9,-27 63,-200 70,-209 1,-14 18,-56 23,-72 8,-24 15,-47 23,-71 15,-46 35,-96 47,-142l1 -4 -188 0c-4,1 -8,14 -9,17l-87 264c-24,74 -75,217 -93,282z"/>
  <path class="fil3" d="M670 299c4,9 3,531 0,536 13,24 51,24 83,24 23,0 88,3 107,-1l-185 -563 -4 0 -1 4z"/>
  <path class="fil4" d="M577 584l64 193c7,19 14,51 29,58 3,-5 4,-527 0,-536 -12,46 -32,96 -47,142 -8,24 -15,47 -23,71 -5,16 -22,58 -23,72z"/>
  <g id="_2131616583184">
   <rect class="fil5" x="914" y="506" width="768" height="363" rx="48" ry="48"/>
   <text x="1101" y="770"  class="fil6 fnt0">Ads</text>
  </g>
 </g>
</svg>
