<?xml version="1.0" encoding="UTF-8"?>
<!DOCTYPE svg PUBLIC "-//W3C//DTD SVG 1.0//EN" "http://www.w3.org/TR/2001/REC-SVG-20010904/DTD/svg10.dtd">
<!-- Creator: CorelDRAW X8 -->
<svg xmlns="http://www.w3.org/2000/svg" xml:space="preserve" width="5000px" height="4394px" version="1.0" style="shape-rendering:geometricPrecision; text-rendering:geometricPrecision; image-rendering:optimizeQuality; fill-rule:evenodd; clip-rule:evenodd"
viewBox="0 0 1012 889"
 xmlns:xlink="http://www.w3.org/1999/xlink">
 <defs>
  <style type="text/css">
   <![CDATA[
    .fil0 {fill:#FF6D63}
   ]]>
  </style>
 </defs>
 <g id="Camada_x0020_1">
  <metadata id="CorelCorpID_0Corel-Layer"/>
  <g id="_2219949935968">
   <path class="fil0" d="M194 221l0 -95 91 0c0,32 2,29 -10,36l-81 59zm818 164l0 17c-6,41 -54,72 -102,39l-220 -158c-59,-41 -127,-95 -184,-133 -15,10 -29,21 -44,31 -8,6 -14,11 -22,16l-172 124c-7,5 -14,10 -21,15l-128 93c-20,13 -45,37 -81,22 -7,-3 -18,-11 -23,-16 -6,-8 -13,-19 -15,-33l0 -18c0,-2 1,-3 1,-5 7,-27 31,-42 55,-58 7,-5 13,-10 21,-15l64 -47c8,-5 13,-9 21,-14l0 -119c-39,0 -46,-39 -36,-63 11,-29 45,-23 83,-23 33,0 75,-3 107,0 48,3 40,39 38,65l38 -27c13,-9 24,-17 37,-26l55 -40c5,-4 13,-11 20,-12 9,-1 16,6 21,10l202 146c76,56 166,117 240,173 19,14 38,24 44,51 0,2 0,3 1,5zm-951 40c-23,0 -49,-35 -13,-61 64,-46 134,-95 196,-141l228 -164c5,-5 10,-8 16,-12 20,-15 16,-15 35,-1l440 317c37,28 10,62 -13,62 -17,0 -94,-61 -113,-74l-274 -198c-10,-7 -18,-14 -28,-20 -33,-22 -22,-29 -85,19l-274 198c-19,13 -37,26 -55,39 -15,10 -44,36 -60,36zm293 -320l0 0zm-200 -16c0,-13 -2,-18 6,-18l158 0c8,0 6,7 6,24l-164 0c-5,0 -6,-1 -6,-6z"/>
   <path class="fil0" d="M150 443l0 395c0,25 26,51 52,51l608 0c25,0 51,-26 51,-51l0 -395c0,-5 -5,-12 -15,-12 -19,0 -16,22 -16,41l0 344c0,9 1,21 -2,28 -2,5 -10,14 -16,14l-612 0c-6,0 -14,-8 -16,-12 -5,-10 -2,-185 -2,-200l0 -172c0,-28 3,-43 -20,-43 -5,0 -12,7 -12,12z"/>
   <path class="fil0" d="M304 512c0,-39 1,-49 26,-81 12,-16 34,-28 54,-33 39,-11 70,3 97,24 10,7 12,19 25,19 16,0 13,-18 49,-36 77,-38 152,29 152,85 0,39 -3,64 -26,98 -8,12 -25,33 -35,42 -13,11 -21,21 -41,36 -17,12 -86,55 -99,55 -17,0 -104,-55 -127,-78l-26 -26c-23,-23 -49,-69 -49,-105zm-31 -16c0,21 2,41 8,59 3,8 5,13 8,21 23,54 86,109 135,138 15,9 70,41 82,41 9,0 49,-22 60,-29 27,-14 68,-41 90,-63 14,-14 30,-28 42,-46l17 -28c2,-4 4,-6 6,-10 12,-26 18,-52 18,-83 0,-70 -63,-132 -132,-132 -34,0 -55,5 -82,23 -7,5 -13,10 -19,14 -35,-23 -45,-37 -101,-37 -70,0 -132,62 -132,132z"/>
  </g>
 </g>
</svg>
