<?xml version="1.0" encoding="UTF-8"?>
<!DOCTYPE svg PUBLIC "-//W3C//DTD SVG 1.0//EN" "http://www.w3.org/TR/2001/REC-SVG-20010904/DTD/svg10.dtd">
<!-- Creator: CorelDRAW X8 -->
<svg xmlns="http://www.w3.org/2000/svg" xml:space="preserve" width="5000px" height="4667px" version="1.0" style="shape-rendering:geometricPrecision; text-rendering:geometricPrecision; image-rendering:optimizeQuality; fill-rule:evenodd; clip-rule:evenodd"
viewBox="0 0 1459 1362"
 xmlns:xlink="http://www.w3.org/1999/xlink">
 <defs>
  <style type="text/css">
   <![CDATA[
    .fil0 {fill:#FF6D63}
   ]]>
  </style>
 </defs>
 <g id="Camada_x0020_1">
  <metadata id="CorelCorpID_0Corel-Layer"/>
  <g id="_2219946027136">
   <path class="fil0" d="M48 1265l1363 0 0 49 -1363 0 0 -49zm-48 74l0 -99c4,-32 23,-26 97,-26l0 -641c-21,-5 -41,-26 -52,-42 -25,-38 -22,-64 -22,-109 0,-20 55,-229 63,-262 15,-60 12,-54 11,-120 0,-13 -2,-24 7,-33 4,-5 8,-7 16,-7l1222 0c24,0 20,38 20,46 0,21 -1,45 0,65 1,17 56,228 63,259 14,52 11,36 11,89 0,50 -35,105 -74,114l0 641c43,0 97,-9 97,26l0 99c0,14 -9,23 -23,23l-1413 0c-14,0 -23,-9 -23,-23zm1023 -609l191 0 0 484 -191 0 0 -484zm-51 -23l0 507 -824 0 0 -630c35,0 63,-14 85,-37 1,-1 1,-1 2,-2 5,-6 4,-5 10,-9 7,26 58,48 103,48 31,0 82,-26 88,-48 10,6 10,15 37,31 37,23 82,23 120,3 18,-9 25,-22 40,-31 14,10 18,19 38,30 37,20 78,21 116,1 21,-11 24,-21 39,-31 27,18 36,45 106,45 53,0 82,-42 91,-48 7,26 58,48 103,48 31,0 82,-26 88,-48 6,4 4,3 9,8 3,3 2,2 4,4 21,22 50,36 84,36l0 630 -46 0 0 -507c0,-12 -9,-26 -20,-26l-253 0c-11,0 -20,14 -20,26zm350 -174l-17 0c-31,0 -63,-31 -63,-63l0 -31 143 0 0 28c0,31 -32,66 -63,66zm-664 -68l0 -26 143 0c0,34 3,49 -19,72 -31,30 -74,30 -105,0 -12,-12 -19,-23 -19,-46zm-584 2l0 -28 143 0 0 31c0,32 -32,63 -63,63l-17 0c-31,0 -63,-35 -63,-66zm778 -5l0 -23 143 0 0 31c0,32 -32,63 -63,63 -28,0 -39,0 -61,-22 -11,-11 -19,-28 -19,-49zm-308 71l-17 0c-31,0 -62,-31 -62,-63l0 -31 142 0c0,27 2,49 -18,71 -10,10 -25,23 -45,23zm502 -74l0 -20 145 0c0,28 1,48 -18,70 -37,44 -127,28 -127,-50zm-778 0l0 -20 145 0c0,28 1,48 -18,70 -37,45 -127,27 -127,-50zm584 -311l123 0c0,17 1,42 4,59l16 181 -143 0 0 -240zm-194 0l143 0 0 240 -143 0 0 -240zm-174 0l123 0 0 240 -142 0c3,-41 19,-204 19,-240zm542 0l120 0 39 240 -142 0c0,-59 -17,-181 -17,-240zm-610 240l-142 0c0,-16 6,-42 9,-59 8,-50 21,-139 30,-181l120 0c0,59 -17,181 -17,240zm781 -240l122 0c1,15 11,47 14,61 7,26 43,164 43,179l-139 0 -40 -240zm-975 240l-139 0c0,-15 10,-47 13,-61 7,-26 43,-164 44,-179l122 0c-10,42 -21,127 -30,178 -3,18 -9,45 -10,62zm-74 -340l1163 0 0 49 -1163 0 0 -49z"/>
   <path class="fil0" d="M245 730l630 0 0 339 -630 0 0 -339zm-51 -23l0 387c0,14 11,26 25,26l679 0c19,0 28,-15 28,-34l0 -368c0,-20 -5,-37 -25,-37l-687 0c-11,0 -20,14 -20,26z"/>
   <polygon class="fil0" points="395,980 430,1015 650,796 616,760 "/>
   <polygon class="fil0" points="566,980 601,1015 699,918 665,883 "/>
   <polygon class="fil0" points="347,883 381,918 479,821 445,786 "/>
  </g>
 </g>
</svg>
