<?xml version="1.0" encoding="UTF-8"?>
<!DOCTYPE svg PUBLIC "-//W3C//DTD SVG 1.1//EN" "http://www.w3.org/Graphics/SVG/1.1/DTD/svg11.dtd">
<!-- Creator: CorelDRAW X7 -->
<svg xmlns="http://www.w3.org/2000/svg" xml:space="preserve" width="5000px" height="3249px" version="1.1" style="shape-rendering:geometricPrecision; text-rendering:geometricPrecision; image-rendering:optimizeQuality; fill-rule:evenodd; clip-rule:evenodd"
viewBox="0 0 251 163"
 xmlns:xlink="http://www.w3.org/1999/xlink">
 <defs>
  <style type="text/css">
   <![CDATA[
    .fil0 {fill:#007AB9}
    .fil2 {fill:#E6E6E6}
    .fil1 {fill:#F0F2F2}
    .fnt0 {font-weight:bold;font-size:33.2268px;font-family:'Arial'}
   ]]>
  </style>
 </defs>
 <g id="Camada_x0020_1">
  <metadata id="CorelCorpID_0Corel-Layer"/>
  <g id="_2131619260112">
   <g>
    <path class="fil0" d="M41 63l19 0 0 59 -19 0 0 -59zm37 -63l8 0c10,1 21,3 30,8 18,8 31,22 40,39 5,12 7,22 7,37 0,30 -20,59 -47,72 -12,5 -22,7 -37,7 -30,0 -59,-20 -72,-47 -5,-12 -7,-22 -7,-37 0,-21 10,-41 24,-55 14,-15 34,-23 54,-24zm12 71c1,-2 5,-5 7,-6 9,-6 23,-4 29,6 4,7 4,14 4,23 0,9 0,19 0,28l-19 0c0,-9 0,-19 0,-28 0,-9 -1,-17 -11,-17 -4,0 -7,3 -8,5 -2,4 -2,8 -2,12 0,9 0,19 0,28l-19 0 0 -59 19 0 0 8zm-43 -36c15,-3 19,17 6,20 -15,3 -19,-16 -6,-20z"/>
    <path class="fil1" d="M90 71l0 -8 -19 0 0 59 19 0c0,-9 0,-19 0,-28 0,-4 0,-8 2,-12 1,-2 4,-5 8,-5 10,0 11,8 11,17 0,9 0,19 0,28l19 0c0,-9 0,-19 0,-28 0,-9 0,-16 -4,-23 -6,-10 -20,-12 -29,-6 -2,1 -6,4 -7,6z"/>
    <polygon class="fil1" points="41,122 60,122 60,63 41,63 "/>
    <path class="fil1" d="M47 35c-13,4 -9,23 6,20 13,-3 9,-23 -6,-20z"/>
   </g>
   <rect class="fil2" x="142" y="71" width="108.867" height="51.3905" rx="7" ry="7"/>
   <text x="166" y="108"  class="fil0 fnt0">Ads</text>
  </g>
 </g>
</svg>
