<?xml version="1.0" encoding="UTF-8"?>
<!DOCTYPE svg PUBLIC "-//W3C//DTD SVG 1.0//EN" "http://www.w3.org/TR/2001/REC-SVG-20010904/DTD/svg10.dtd">
<!-- Creator: CorelDRAW X8 -->
<svg xmlns="http://www.w3.org/2000/svg" xml:space="preserve" width="5000px" height="5000px" version="1.0" style="shape-rendering:geometricPrecision; text-rendering:geometricPrecision; image-rendering:optimizeQuality; fill-rule:evenodd; clip-rule:evenodd"
viewBox="0 0 4491 4491"
 xmlns:xlink="http://www.w3.org/1999/xlink">
 <defs>
  <style type="text/css">
   <![CDATA[
    .fil0 {fill:#000}
   ]]>
  </style>
 </defs>
 <g id="Camada_x0020_1">
  <metadata id="CorelCorpID_0Corel-Layer"/>
  <g id="_2219949972800">
   <path class="fil0" d="M526 3447c27,-40 822,-827 937,-941 32,-32 49,-58 83,-92 56,-55 312,-319 349,-344l1747 1743c-54,72 -329,242 -415,292 -31,18 -59,31 -94,45 -319,129 -317,135 -673,187 -164,24 -377,8 -530,-13 -308,-43 -615,-172 -827,-314 -59,-40 -107,-75 -163,-117l-223 -207c-29,-29 -41,-42 -67,-74 -46,-58 -88,-97 -124,-165zm1623 -3447l221 0c283,14 564,82 826,207 797,383 1253,1139 1295,1926l0 238c-19,344 -117,688 -302,1002 -19,33 -35,55 -54,87 -52,85 -111,157 -172,231 -108,134 -290,301 -430,395l-84 56c-28,18 -54,35 -81,50 -385,221 -732,299 -1184,299 -844,0 -1632,-551 -1979,-1301 -150,-322 -205,-600 -205,-1006 0,-580 278,-1151 656,-1528 401,-401 942,-629 1493,-656zm941 2423l938 934c-46,86 -211,305 -283,353l-971 -967 316 -320zm-1125 -1300l701 0 0 421 -701 0 0 -421zm-211 -211l70 0 0 1009c0,29 -314,328 -339,353 -104,103 -482,470 -566,566 -106,119 -188,196 -303,311 -44,44 -133,144 -177,173 -40,-74 -82,-145 -116,-226 -86,-212 -162,-452 -174,-686 -1,-28 2,-59 0,-87 -15,-178 -1,-92 0,-238 0,-50 11,-108 18,-157 60,-438 233,-733 486,-1058 39,-51 123,-125 169,-172 31,-32 59,-54 93,-83 119,-102 285,-199 424,-269 201,-101 445,-165 669,-191 469,-54 981,59 1369,317 155,102 348,256 460,399 63,81 88,104 152,199 413,607 491,1446 116,2156 -41,-28 -780,-776 -875,-871 -43,-43 -89,-112 -151,-112 -53,0 -340,338 -413,386 -39,-26 -529,-525 -616,-611 -110,-111 -85,-39 -85,-336l710 0c38,0 69,-14 90,-33 16,-15 42,-61 42,-90l0 -508c0,-43 -28,-71 -70,-71l-772 0 0 -70 70 0 0 -140 -281 0 0 140z"/>
   <path class="fil0" d="M719 1640l104 99 227 -233c3,134 2,266 3,397 0,110 13,89 -46,147 -85,83 -457,466 -498,494l98 103c38,-25 368,-363 430,-426 172,-172 156,-124 156,-274 0,-146 0,-292 0,-438l230 226 105 -101c-102,-70 -335,-371 -405,-371 -48,0 -84,54 -112,81 -62,62 -265,257 -292,296z"/>
   <path class="fil0" d="M3105 1631l103 108 228 -233c2,146 2,289 2,432 0,157 -20,107 152,279 73,74 141,141 215,215 52,52 178,166 212,217l108 -103c-40,-27 -339,-334 -399,-395 -165,-165 -148,-115 -147,-248 0,-131 0,-263 0,-394l230 226 105 -101c-102,-70 -335,-371 -406,-371 -70,0 -337,324 -403,368z"/>
  </g>
 </g>
</svg>
