<svg xmlns="http://www.w3.org/2000/svg" width="69.076" height="69.077" viewBox="0 0 69.076 69.077"><defs><style>.a{fill:#FF6D63;}</style></defs><g transform="translate(0 0)"><g transform="translate(0 0)"><path class="a" d="M65.939,34.828V25.12a6.266,6.266,0,0,0-5.78-6.229L51.143,3.142a6.213,6.213,0,0,0-8.524-2.3L11.711,18.84H6.283A6.286,6.286,0,0,0,0,25.12V62.8a6.286,6.286,0,0,0,6.28,6.28H59.66a6.286,6.286,0,0,0,6.28-6.28V53.089a4.7,4.7,0,0,0,3.14-4.421V39.249A4.7,4.7,0,0,0,65.939,34.828ZM56.511,18.84H42.828L53.09,12.865Zm-4.981-8.7-14.943,8.7h-6.2L49.981,7.434ZM44.2,3.559a3.036,3.036,0,0,1,2.332-.314A3.078,3.078,0,0,1,48.417,4.7l0,.006L24.149,18.84h-6.2ZM62.8,62.8a3.144,3.144,0,0,1-3.14,3.14H6.283a3.144,3.144,0,0,1-3.14-3.14V25.12a3.144,3.144,0,0,1,3.14-3.14H59.66a3.144,3.144,0,0,1,3.14,3.14v9.419H53.38a9.419,9.419,0,1,0,0,18.839H62.8V62.8Zm3.14-14.129a1.571,1.571,0,0,1-1.57,1.57H53.38a6.28,6.28,0,1,1,0-12.559H64.369a1.571,1.571,0,0,1,1.57,1.57Z" transform="translate(-0.003 0)"></path><path class="a" d="M344.477,277.341a3.14,3.14,0,1,0,3.14,3.14A3.144,3.144,0,0,0,344.477,277.341Z" transform="translate(-291.1 -236.522)"></path></g></g></svg>