<?xml version="1.0" encoding="UTF-8"?>
<!DOCTYPE svg PUBLIC "-//W3C//DTD SVG 1.1//EN" "http://www.w3.org/Graphics/SVG/1.1/DTD/svg11.dtd">
<!-- Creator: CorelDRAW X7 -->
<svg xmlns="http://www.w3.org/2000/svg" xml:space="preserve" width="5000px" height="3342px" version="1.1" style="shape-rendering:geometricPrecision; text-rendering:geometricPrecision; image-rendering:optimizeQuality; fill-rule:evenodd; clip-rule:evenodd"
viewBox="0 0 465 311"
 xmlns:xlink="http://www.w3.org/1999/xlink">
 <defs>
  <style type="text/css">
   <![CDATA[
    .fil0 {fill:#821CC3}
    .fil2 {fill:#FBD921}
    .fil1 {fill:white}
    .fnt0 {font-weight:bold;font-size:63.3953px;font-family:'Arial'}
   ]]>
  </style>
 </defs>
 <g id="Camada_x0020_1">
  <metadata id="CorelCorpID_0Corel-Layer"/>
  <circle class="fil0" cx="155" cy="155" r="155"/>
  <g id="_2131625256832">
   <path class="fil1" d="M100 100l28 0 0 28 -28 0 0 -28zm-7 -3l0 34c0,2 2,4 4,4l34 0c2,0 4,-2 4,-4l0 -34c0,-2 -2,-4 -4,-4l-34 0c-2,0 -4,2 -4,4z"/>
   <path class="fil1" d="M183 100l27 0 0 28 -27 0 0 -28zm-7 -3l0 34c0,2 2,4 4,4l34 0c2,0 4,-2 4,-4l0 -34c0,-2 -2,-4 -4,-4l-34 0c-2,0 -4,2 -4,4z"/>
   <path class="fil1" d="M100 183l28 0 0 27 -28 0 0 -27zm-7 -3l0 34c0,2 2,4 5,4l33 0c2,0 4,-2 4,-4l0 -34c0,-2 -2,-4 -4,-4l-34 0c-2,0 -4,2 -4,4z"/>
   <path class="fil1" d="M231 195l0 36 -36 0c-7,0 -6,7 -2,7l42 0c2,0 3,-1 3,-3l0 -42c0,-4 -7,-5 -7,2z"/>
   <path class="fil1" d="M73 193l0 42c0,2 1,3 3,3l41 0c5,0 6,-7 -1,-7l-36 0 0 -36c0,-7 -7,-6 -7,-2z"/>
   <path class="fil1" d="M73 76l0 41c0,5 7,6 7,-1l0 -36 36 0c7,0 6,-7 1,-7l-41 0c-2,0 -3,1 -3,3z"/>
   <path class="fil1" d="M190 76c0,3 2,4 5,4l36 0 0 36c0,7 7,6 7,1l0 -41c0,-2 -1,-3 -3,-3l-42 0c-1,0 -3,1 -3,3z"/>
   <path class="fil1" d="M190 145l0 17c-16,0 -14,-2 -14,14 -3,0 -7,-1 -7,4 0,4 5,3 9,3 7,0 5,-5 5,-14 16,0 14,3 14,-20l4 0c3,0 4,-7 0,-7 -6,0 -11,-1 -11,3z"/>
   <path class="fil1" d="M176 193l0 4c-8,0 -7,0 -7,13l-17 0c-5,0 -5,8 0,8l20 0c6,0 4,-8 4,-14 7,0 7,-1 7,-9 0,-7 -7,-6 -7,-2z"/>
   <path class="fil1" d="M149 131l0 18c-4,0 -7,-1 -7,3 0,2 1,3 3,3l14 0c5,0 4,-6 1,-6l-5 0 0 -14c11,0 14,1 14,-5 0,-4 -11,-2 -15,-2 -3,0 -5,0 -5,3z"/>
   <path class="fil1" d="M128 154l0 8c-8,0 -14,-1 -14,4 0,1 1,3 3,3l28 0c5,0 5,-7 0,-7l-10 0c0,-11 1,-13 -5,-13 -2,0 -2,3 -2,5z"/>
   <path class="fil1" d="M155 172l0 11c-15,0 -13,-2 -13,11 0,3 7,4 7,-1l0 -3 6 0c0,3 0,7 4,7 1,0 3,-1 3,-3l0 -22c0,-4 -7,-4 -7,0z"/>
   <path class="fil1" d="M190 179c0,3 2,4 5,4l15 0c0,3 0,11 1,12 2,3 7,2 7,-2l0 -13c0,-2 -2,-4 -4,-4l-21 0c-1,0 -3,2 -3,3z"/>
   <path class="fil1" d="M197 200l0 10c-3,0 -7,0 -7,4 0,2 1,4 3,4l21 0c3,0 5,-5 2,-7 -1,-1 -9,-1 -12,-1 0,-7 1,-13 -4,-13 -2,0 -3,1 -3,3z"/>
   <path class="fil1" d="M93 146l0 20c0,4 7,4 7,0l0 -11c7,0 14,2 14,-3 0,-5 -6,-3 -14,-3 0,-4 1,-7 -4,-7 -2,0 -3,1 -3,4z"/>
   <path class="fil1" d="M155 103l0 11c-8,0 -13,-2 -13,4 0,2 1,3 4,3l13 0c5,0 3,-6 3,-14 4,0 7,1 7,-4 0,-4 -6,-3 -10,-3 -2,0 -4,2 -4,3z"/>
   <path class="fil1" d="M107 111c0,11 -1,10 10,10 5,0 4,-6 4,-10 0,-5 -6,-4 -10,-4 -2,0 -4,2 -4,4z"/>
   <path class="fil1" d="M107 194c0,10 0,10 10,10 5,0 4,-4 4,-11 0,-4 -6,-3 -10,-3 -3,0 -4,2 -4,4z"/>
   <path class="fil1" d="M190 111c0,11 -1,10 10,10 5,0 4,-6 4,-10 0,-5 -6,-4 -10,-4 -2,0 -4,1 -4,4z"/>
   <path class="fil1" d="M210 152l0 10c-1,0 -7,0 -7,4 0,4 6,3 12,3 1,0 3,-2 3,-3l0 -14c0,-5 -8,-5 -8,0z"/>
   <path class="fil1" d="M169 145c0,6 -1,10 4,10 4,0 3,-4 3,-7 0,-5 -1,-6 -4,-6 -2,0 -3,1 -3,3z"/>
   <path class="fil1" d="M142 96c0,3 -1,9 0,10 3,3 7,0 7,-2 0,-4 1,-11 -4,-11 -2,0 -3,1 -3,3z"/>
  </g>
  <rect class="fil2" x="257" y="135" width="207.713" height="98.0508" rx="13" ry="13"/>
  <text x="286" y="207"  class="fil0 fnt0">Scan</text>
 </g>
</svg>
