<svg xmlns="http://www.w3.org/2000/svg" width="53.475" height="70.127" viewBox="0 0 53.475 70.127"><defs><style>.a{fill:#FF6D63;stroke:#FF6D63;}</style></defs><g transform="translate(0.55 0.55)"><g transform="translate(6.473 6.487)"><path class="a" d="M138.41,50.2a19.671,19.671,0,0,0-24.405,29.621,1.089,1.089,0,0,0,1.718-1.337,17.494,17.494,0,0,1,21.705-26.34,1.088,1.088,0,1,0,.982-1.943Z" transform="translate(-109.878 -48.082)"></path></g><g transform="translate(13.655 16.704)"><g transform="translate(0)"><path class="a" d="M193.152,124.4a1.089,1.089,0,0,0-1.944.982,17.494,17.494,0,0,1-26.342,21.7,1.089,1.089,0,1,0-1.337,1.718,19.671,19.671,0,0,0,29.623-24.4Z" transform="translate(-163.109 -123.806)"></path></g></g><g transform="translate(37.338 11.145)"><g transform="translate(0)"><path class="a" d="M342.195,84.616c-.27-.305-.553-.607-.842-.9s-.59-.572-.9-.842a1.089,1.089,0,0,0-1.442,1.631c.272.24.54.493.8.75s.51.526.75.8a1.089,1.089,0,0,0,1.631-1.442Z" transform="translate(-338.647 -82.605)"></path></g></g><g transform="translate(0 0)"><g transform="translate(0 0)"><path class="a" d="M113.729,28.118a3.694,3.694,0,0,0,0-3.861L112.3,21.909a1.532,1.532,0,0,1-.205-1.035l.427-2.712a3.693,3.693,0,0,0-1.482-3.575l-2.22-1.614a1.533,1.533,0,0,1-.587-.878l-.646-2.671a3.693,3.693,0,0,0-2.732-2.732l-2.671-.647a1.532,1.532,0,0,1-.878-.587l-1.615-2.22a3.692,3.692,0,0,0-3.575-1.482L93.4,2.182a1.532,1.532,0,0,1-1.035-.205L90.016.544a3.694,3.694,0,0,0-3.861,0L83.807,1.977a1.532,1.532,0,0,1-1.035.205l-2.712-.427a3.693,3.693,0,0,0-3.575,1.482L74.87,5.456a1.533,1.533,0,0,1-.878.587l-2.671.646a3.693,3.693,0,0,0-2.732,2.732l-.647,2.671a1.531,1.531,0,0,1-.587.878l-2.22,1.615a3.692,3.692,0,0,0-1.482,3.575l.427,2.713a1.532,1.532,0,0,1-.205,1.035l-1.432,2.349a3.694,3.694,0,0,0,0,3.861l1.432,2.349A1.532,1.532,0,0,1,64.08,31.5l-.427,2.712a3.692,3.692,0,0,0,1.482,3.575l2.22,1.614a1.532,1.532,0,0,1,.587.878l.646,2.671a3.693,3.693,0,0,0,2.732,2.732l1.115.27L64.886,62.793a1.089,1.089,0,0,0,1.123,1.526l6.074-.726,3.5,5.018a1.089,1.089,0,0,0,.893.466c.034,0,.068,0,.1,0a1.089,1.089,0,0,0,.892-.638l7.71-17.2.977.6a3.694,3.694,0,0,0,3.861,0l1.012-.617,7.72,17.22a1.088,1.088,0,0,0,.892.638c.034,0,.068,0,.1,0a1.089,1.089,0,0,0,.893-.466l3.5-5.018,6.074.726a1.089,1.089,0,0,0,1.123-1.526l-7.553-16.849,1.074-.26a3.693,3.693,0,0,0,2.732-2.732l.647-2.671a1.532,1.532,0,0,1,.587-.878l2.22-1.615a3.692,3.692,0,0,0,1.482-3.575l-.427-2.713a1.532,1.532,0,0,1,.205-1.035ZM76.268,65.789l-2.773-3.977a1.088,1.088,0,0,0-1.022-.458l-4.814.576,6.878-15.343a1.523,1.523,0,0,1,.331.331l1.615,2.22A3.742,3.742,0,0,0,77,49.71l-3.62,8.076a1.089,1.089,0,1,0,1.987.891l3.607-8.047a3.726,3.726,0,0,0,1.087-.01l2.713-.427a1.528,1.528,0,0,1,.487,0Zm32.289-3.859-4.814-.575a1.088,1.088,0,0,0-1.022.458l-2.773,3.977-6.993-15.6a1.532,1.532,0,0,1,.444,0l2.712.427a3.728,3.728,0,0,0,1.13,0l3.61,8.053a1.089,1.089,0,1,0,1.987-.891L99.2,49.68a3.747,3.747,0,0,0,.482-.541l1.614-2.22a1.528,1.528,0,0,1,.366-.357Zm3.313-34.945-1.432,2.349a3.713,3.713,0,0,0-.5,2.506l.427,2.713a1.525,1.525,0,0,1-.612,1.476l-2.22,1.615a3.712,3.712,0,0,0-1.423,2.126l-.647,2.671a1.525,1.525,0,0,1-1.128,1.128l-2.671.646a3.712,3.712,0,0,0-2.127,1.423l-1.614,2.22a1.524,1.524,0,0,1-1.476.612l-2.712-.427a3.713,3.713,0,0,0-2.507.5l-2.348,1.432a1.526,1.526,0,0,1-1.594,0L84.94,48.539a3.711,3.711,0,0,0-2.507-.5l-2.713.427a1.524,1.524,0,0,1-1.476-.612l-1.615-2.22A3.712,3.712,0,0,0,74.5,44.214l-2.671-.647A1.525,1.525,0,0,1,70.7,42.44l-.646-2.671a3.712,3.712,0,0,0-1.423-2.127l-2.219-1.615a1.524,1.524,0,0,1-.612-1.476l.427-2.712a3.712,3.712,0,0,0-.5-2.507L64.3,26.984a1.525,1.525,0,0,1,0-1.594l1.432-2.349a3.712,3.712,0,0,0,.5-2.506L65.8,17.822a1.525,1.525,0,0,1,.612-1.476l2.22-1.615A3.712,3.712,0,0,0,70.059,12.6l.647-2.671a1.525,1.525,0,0,1,1.128-1.128L74.5,8.159a3.711,3.711,0,0,0,2.126-1.423l1.614-2.22a1.524,1.524,0,0,1,1.476-.612l2.712.427a3.711,3.711,0,0,0,2.507-.5L87.289,2.4a1.526,1.526,0,0,1,1.594,0l2.349,1.432a3.71,3.71,0,0,0,2.507.5l2.713-.427a1.525,1.525,0,0,1,1.476.612l1.615,2.22a3.712,3.712,0,0,0,2.126,1.423l2.671.647a1.525,1.525,0,0,1,1.128,1.128l.646,2.671a3.712,3.712,0,0,0,1.423,2.127l2.219,1.614a1.524,1.524,0,0,1,.612,1.476l-.427,2.712a3.712,3.712,0,0,0,.5,2.507l1.432,2.349A1.525,1.525,0,0,1,111.87,26.984Z" transform="translate(-61.898 0)"></path></g></g><g transform="translate(13.35 13.545)"><g transform="translate(0)"><path class="a" d="M186.425,109.653a1.948,1.948,0,0,0-1.639-1.346l-6.55-.777-2.763-5.99a1.967,1.967,0,0,0-3.573,0l-2.763,5.99-6.55.777a1.967,1.967,0,0,0-1.1,3.4l4.843,4.479-1.285,6.47a1.974,1.974,0,0,0,1.927,2.354,1.968,1.968,0,0,0,.963-.254l5.756-3.222,5.756,3.222a1.967,1.967,0,0,0,2.89-2.1l-1.285-6.47,4.843-4.479A1.948,1.948,0,0,0,186.425,109.653Zm-7.3,5.346a1.089,1.089,0,0,0-.329,1.011l1.315,6.62-5.89-3.3a1.089,1.089,0,0,0-1.063,0l-5.89,3.3,1.315-6.62a1.088,1.088,0,0,0-.329-1.011l-4.956-4.583,6.7-.795a1.089,1.089,0,0,0,.86-.625l2.827-6.129L176.513,109a1.089,1.089,0,0,0,.86.625l6.7.795Z" transform="translate(-160.849 -100.398)"></path></g></g></g></svg>