<?xml version="1.0" encoding="UTF-8"?>
<!DOCTYPE svg PUBLIC "-//W3C//DTD SVG 1.0//EN" "http://www.w3.org/TR/2001/REC-SVG-20010904/DTD/svg10.dtd">
<!-- Creator: CorelDRAW X8 -->
<svg xmlns="http://www.w3.org/2000/svg" xml:space="preserve" width="5000px" height="4917px" version="1.0" style="shape-rendering:geometricPrecision; text-rendering:geometricPrecision; image-rendering:optimizeQuality; fill-rule:evenodd; clip-rule:evenodd"
viewBox="0 0 12710 12501"
 xmlns:xlink="http://www.w3.org/1999/xlink">
 <defs>
  <style type="text/css">
   <![CDATA[
    .fil0 {fill:#FF6D63}
   ]]>
  </style>
 </defs>
 <g id="Camada_x0020_1">
  <metadata id="CorelCorpID_0Corel-Layer"/>
  <g id="_2219949936576">
   <path class="fil0" d="M8783 9591c829,555 1802,660 2767,385 95,-27 174,-59 276,-68 0,511 -217,1007 -418,1329 -146,234 -691,841 -932,841l-2751 0c-323,0 -943,-787 -1123,-1206 -80,-184 -70,-76 29,-417 115,-396 274,-1057 274,-1473 945,0 1049,215 1376,291 0,157 77,444 116,598 137,540 217,853 396,1377 36,106 71,168 96,274 88,-7 353,-121 423,-159 -97,-184 -360,-1066 -418,-1301 -22,-89 -38,-151 -58,-233 -14,-57 -34,-195 -53,-238zm-132 -820c0,-868 179,-1473 406,-2240l157 -477c50,-137 -17,-114 363,-114 89,0 291,308 340,374 103,138 202,265 313,401 57,70 92,126 149,196l488 622c430,520 942,1199 959,1925 -405,34 -1413,581 -2645,-133 -104,-60 -216,-143 -319,-210 -30,-20 -137,-87 -156,-109 -4,-4 -8,-10 -12,-14 -3,-5 -7,-12 -10,-17 -32,-60 -33,-141 -33,-204zm-3095 3307l-3440 0c16,-188 28,-356 27,-583 -1,-217 15,-385 26,-608 48,-923 315,-2483 442,-3368l486 -3297c49,-359 103,-737 165,-1105l118 -809c33,-263 64,-128 286,45 772,601 1729,1737 2109,2627 550,1288 733,1910 733,3500 0,1174 -377,2163 -786,3182 -58,145 -100,290 -166,416zm2672 -3307c-194,-45 -336,-118 -553,-162 -273,-54 -403,-76 -717,-76 0,-593 -81,-438 391,-1012l1223 -1581 211 0 -381 1312c-125,495 -174,907 -174,1519zm449 -3678l847 0 0 424 -847 0 0 -424zm1693 -1349c0,302 78,480 133,714l-556 0c29,-343 180,-585 423,-714zm1482 -979l423 0 0 424 -423 0 0 -424zm-2328 1588l0 317 -847 0c0,-473 -5,-423 -635,-423 0,-1278 -115,-1482 635,-1482l2752 0 0 424c-534,0 -857,-70 -1253,149 -332,185 -652,596 -652,1015zm-5053 -1879c395,-209 261,-363 720,153 110,123 550,609 550,720 0,130 -180,235 -265,291 -170,-253 -507,-653 -734,-879 -96,-96 -198,-176 -271,-285zm-2778 9445l0 159 -635 0 0 -1244 117 -1232c57,-417 75,-797 132,-1217 162,-1172 256,-2502 405,-3670 52,-412 92,-822 135,-1214l198 -1839c22,-171 57,-439 71,-616 154,81 707,612 900,740l-369 2489c-283,2074 -954,5755 -954,7644zm-1032 -1614c-67,-33 -143,-47 -211,-79l796 -7908c35,-428 183,-1516 183,-1854 100,27 126,101 291,211 -36,155 -57,425 -75,587l-459 4223c-89,793 -185,1601 -262,2410 -38,388 -104,792 -131,1192 -23,343 -132,944 -132,1218zm-661 106c0,193 484,309 635,344l-2 1456c1,179 41,290 214,290l4867 0c155,0 194,-109 235,-215l374 -976c4,5 10,7 11,15l105 160c48,72 76,122 130,188 164,202 765,828 997,828l3069 0c260,0 943,-730 1122,-994 737,-1085 685,-2626 -105,-3674l-1564 -2007c-214,-260 -141,-352 -141,-944 1057,0 648,-69 1084,159 229,119 391,135 656,191 94,20 238,64 350,73 4,-158 68,-281 80,-423 -316,-74 -784,-140 -996,-301 -172,-131 -267,-445 -294,-658 -18,-133 15,-210 -33,-311l1588 1c420,3 317,-163 317,-1059 0,-128 -84,-212 -212,-212l-3995 0c-608,0 -873,337 -873,926l0 1190c0,277 317,212 635,212l0 900c0,144 -557,787 -650,911l-349 444c-66,79 -108,143 -173,224 -39,47 -43,50 -83,102l-94 117c0,-425 -287,-1459 -420,-1828 -114,-318 -352,-846 -534,-1160l-210 -371c12,-17 678,-433 339,-1001l-766 -901c-183,-229 -312,-241 -579,-241 -239,0 -426,213 -582,317 -119,-80 -165,-134 -279,-223l-428 -365c-63,-59 -78,-70 -143,-122l-1690 -1432c-251,-119 -561,30 -608,343 -85,576 -178,1791 -242,2403l-238 2355c-16,145 -39,317 -50,480 -21,310 -77,648 -102,955l-289 2859c-19,177 -22,309 -46,483 -23,164 -38,324 -38,492z"/>
   <path class="fil0" d="M4683 10384c-943,0 -819,44 -821,-503 -1,-218 49,-501 54,-713l185 -2883c6,-225 19,-528 45,-723 46,-334 -72,-574 272,-574 168,0 547,895 619,1100 150,432 254,896 255,1466l-80 1190c-9,136 -32,282 -49,402 -30,212 -141,867 -205,1064 -41,129 -118,174 -275,174zm-1270 -132c0,265 303,556 582,556 640,0 1175,121 1373,-426 41,-114 62,-252 92,-384 34,-146 52,-272 80,-423 149,-786 174,-1516 174,-2312 0,-789 -354,-1671 -725,-2291 -135,-225 -293,-434 -597,-434 -341,0 -638,268 -661,583l-281 4322c-20,136 -1,265 -22,401 -21,136 -15,262 -15,408z"/>
   <polygon class="fil0" points="0,860 635,860 635,437 0,437 "/>
   <polygon class="fil0" points="0,1919 423,1919 423,1495 0,1495 "/>
   <polygon class="fil0" points="0,2977 423,2977 423,2554 0,2554 "/>
  </g>
 </g>
</svg>
