<?xml version="1.0" encoding="UTF-8"?>
<!DOCTYPE svg PUBLIC "-//W3C//DTD SVG 1.0//EN" "http://www.w3.org/TR/2001/REC-SVG-20010904/DTD/svg10.dtd">
<!-- Creator: CorelDRAW X8 -->
<svg xmlns="http://www.w3.org/2000/svg" xml:space="preserve" width="5000px" height="5000px" version="1.0" style="shape-rendering:geometricPrecision; text-rendering:geometricPrecision; image-rendering:optimizeQuality; fill-rule:evenodd; clip-rule:evenodd"
viewBox="0 0 76522 76522"
 xmlns:xlink="http://www.w3.org/1999/xlink">
 <defs>
  <style type="text/css">
   <![CDATA[
    .fil0 {fill:#FF6D63}
   ]]>
  </style>
 </defs>
 <g id="Camada_x0020_1">
  <metadata id="CorelCorpID_0Corel-Layer"/>
  <g id="_2219949938336">
   <path class="fil0" d="M46631 65761c0,-1044 391,-2547 764,-3421 2358,-5521 11358,-7526 15181,30 3222,6371 -3856,14297 -10965,10965 -1994,-934 -3251,-2190 -4185,-4184 -354,-755 -795,-2368 -795,-3390zm-11445 -65761l584 0c1152,87 2255,690 2845,1738 706,1255 452,2234 200,3748 -437,2628 -834,5471 -1279,8137l-2563 16268c3052,0 1927,1219 1939,4330 7,1964 -448,6059 -440,8079 6,1774 -453,5753 -453,7918l2391 0c0,-1206 191,-2483 343,-3694l2919 -25328c174,-1569 912,-9542 1386,-10720 344,-855 1202,-1628 2089,-1946 1271,-456 13330,-160 15831,-160 62,-736 414,-1196 1196,-1196l13152 0c723,0 1196,473 1196,1196l0 7174c0,1673 -2235,1195 -4783,1195 0,627 -119,758 -150,1345 -66,1264 28,2555 -189,4144 -261,1904 -347,4873 -403,6921l-176 2813c-52,460 -128,553 -133,1212 -17,1922 -297,3656 -290,5539l-688 10970c-145,968 -95,1783 -253,2736 -369,2215 -1298,4372 -2500,6168 998,0 1996,1 2995,-6 1084,-8 1787,150 1787,1202 0,7246 641,7187 -2391,7174 -1195,-5 -2391,0 -3587,0 -169,724 -239,1378 -464,2077 -420,1311 -1802,3695 -2799,4524 -2883,2399 -4566,2964 -8245,2964 -2921,0 -6359,-2080 -7985,-4421 -1438,-2070 -1523,-2974 -2029,-5144l-15543 0c-169,724 -240,1378 -464,2077 -208,649 -444,1084 -731,1660 -701,1411 -765,1281 -1516,2221 -215,269 -279,416 -552,643 -2884,2399 -4566,2964 -8245,2964 -2922,0 -6359,-2080 -7985,-4421 -1438,-2070 -1523,-2974 -2029,-5144 -1395,0 -2790,-1 -4185,0 -1454,0 -2989,297 -2989,-1196l0 -14348c0,-723 473,-1195 1196,-1195l6426 0c0,-737 -170,-4546 -576,-4954 -209,-210 -2263,-1073 -2263,-3117l0 -13750c0,-1644 1643,-3288 3288,-3288l14945 0c813,0 1028,508 1193,-292 47,-230 3,-1339 1,-1653 -17,-2389 467,-7295 450,-9714l295 -6429c73,-1713 1552,-3434 3292,-3434 2135,0 1693,1762 1014,2209 -1429,940 -1844,-1002 -1904,3925 -11,830 -152,951 -162,1781 -58,4762 -527,10030 -586,14808l-155 3581 1196 0 2562 -16119c225,-1346 445,-2703 663,-4120 234,-1530 946,-6895 1450,-7817 633,-1159 1733,-1749 2861,-1835zm-25621 65761c0,-1022 442,-2635 795,-3390 2488,-5308 9257,-6663 13442,-2478 6587,6587 -1113,17259 -9257,13442 -1140,-534 -1643,-872 -2478,-1706 -1442,-1443 -2502,-3746 -2502,-5868zm55150 -4783l4633 0 0 3587 -3587 0c-342,-1466 -439,-2228 -1046,-3587zm-57541 3587l-4783 0 0 -11956 45884 0c437,0 2931,2680 3138,2989 -2530,589 -5149,3293 -6284,5822 -527,1176 -571,1778 -890,3145l-15543 0c-506,-2170 -591,-3074 -2029,-5144 -705,-1015 -1079,-1257 -1818,-1919 -319,-286 -298,-285 -663,-532 -4587,-3103 -9514,-2529 -13749,994l-1110 1281c-1062,1398 -2000,3477 -2153,5320zm26304 -14347l-23315 0c0,-605 -103,-1666 -191,-2350 -65,-504 -245,-1880 -257,-2433l10910 0c1644,0 3288,-1644 3288,-3288l0 -9864 10612 0 -1047 17935zm-13301 -7174l-1046 0c0,-1797 367,-3587 -1196,-3587 -1563,0 -1196,1790 -1196,3587l-8220 0c-739,0 -1345,-607 -1345,-1346l0 -12853c0,-739 606,-1345 1345,-1345l14049 0c1518,0 1345,1600 1345,2391 -2956,0 -2391,-71 -2391,6576 0,1296 -3,2591 0,3887 4,1431 77,2690 -1345,2690zm43492 15543c-1456,0 -553,-595 -3427,-2253 -3650,-2104 -5299,-861 -6187,-1584 -389,-317 -941,-964 -1334,-1357 -446,-446 -2503,-2205 -2503,-2727l0 -35122 4782 0 0 10760c0,1605 2391,1605 2391,0l0 -10760 3587 0c62,735 414,1195 1196,1195l7025 0c0,2099 -374,5826 -444,8374l-1349 22265c-34,659 -135,623 -155,1340 -66,2405 -176,4077 -1147,6326 -309,714 -1770,3543 -2435,3543zm-299 -49022l10761 0 0 4783 -10761 0 0 -4783zm-15544 4783l0 35870 -7024 0c355,-1527 3166,-27566 3543,-30534 228,-1795 333,-3319 577,-5101 312,-2272 -143,-3822 1858,-3822l14198 0 0 2391 -11956 0c-723,0 -1196,473 -1196,1196zm-15394 15543l-2242 0 3886 -24661c191,-1139 141,-2740 1362,-2800 1520,-75 1124,1396 943,2565l-3949 24896z"/>
   <path class="fil0" d="M12255 14348c223,-333 1654,-1307 1943,-2391l299 0c265,992 1621,1910 1943,2391 -222,332 -1653,1307 -1943,2391l-299 0c-286,-1071 -1708,-2042 -1943,-2391zm-5081 0c0,2080 2288,158 4659,3113 1973,2458 483,5256 2515,5256 2031,0 542,-2798 2515,-5256 2371,-2955 4659,-1033 4659,-3113 0,-1448 -1359,-1067 -2436,-1451 -4657,-1661 -2397,-6919 -4738,-6919 -2341,0 -81,5258 -4739,6919 -1076,384 -2435,3 -2435,1451z"/>
   <path class="fil0" d="M15544 65910c-118,-756 590,-2386 2270,-2504 1323,-93 2395,1049 2476,2234 90,1324 -1047,2395 -2234,2476 -609,42 -1329,-286 -1703,-623 -405,-364 -742,-1148 -809,-1583zm-2392 -448c0,1576 255,2544 1302,3630 3156,3271 8263,577 8263,-2883 0,-1552 -158,-2637 -1376,-3854 -2949,-2949 -8189,-855 -8189,3107z"/>
   <path class="fil0" d="M52609 65910c-69,-441 406,-1502 632,-1759 1205,-1369 3960,-777 4114,1489 196,2878 -4245,3509 -4746,270zm-2391 -448c0,3104 2194,5082 4334,5082 1552,0 2637,-159 3854,-1377 2693,-2692 1484,-8189 -3705,-8189 -2306,0 -4483,2178 -4483,4484z"/>
   <path class="fil0" d="M61726 39457c1765,0 1345,-2514 1345,-4335l143 -7927c11,-909 160,-1448 156,-2534 -3,-900 9,-1801 8,-2699 -2,-2225 -2304,-2272 -2404,-146l-144 5237c6,1138 -158,1624 -154,2685l-154 8083c0,1010 230,1636 1204,1636z"/>
   <path class="fil0" d="M5978 4783c0,1421 1409,1195 2392,1195 1604,0 1604,-2391 0,-2391 -983,0 -2392,-226 -2392,1196z"/>
   <path class="fil0" d="M3587 1196c0,982 -226,2391 1196,2391 1421,0 1195,-1409 1195,-2391 0,-740 -508,-1138 -1056,-1196l-279 0c-548,58 -1056,456 -1056,1196z"/>
   <path class="fil0" d="M0 4783c0,1421 1409,1195 2391,1195 1605,0 1605,-2391 0,-2391 -982,0 -2391,-226 -2391,1196z"/>
   <path class="fil0" d="M3587 7174c0,983 -226,2391 1196,2391 1421,0 1195,-1408 1195,-2391 0,-1604 -2391,-1604 -2391,0z"/>
   <path class="fil0" d="M55000 31087c0,1604 2391,1604 2391,0 0,-1604 -2391,-1604 -2391,0z"/>
  </g>
 </g>
</svg>
