<?xml version="1.0" encoding="UTF-8"?>
<!DOCTYPE svg PUBLIC "-//W3C//DTD SVG 1.1//EN" "http://www.w3.org/Graphics/SVG/1.1/DTD/svg11.dtd">
<!-- Creator: CorelDRAW X7 -->
<svg xmlns="http://www.w3.org/2000/svg" xml:space="preserve" width="5000px" height="4355px" version="1.1" style="shape-rendering:geometricPrecision; text-rendering:geometricPrecision; image-rendering:optimizeQuality; fill-rule:evenodd; clip-rule:evenodd"
viewBox="0 0 4742 4132"
 xmlns:xlink="http://www.w3.org/1999/xlink">
 <defs>
  <style type="text/css">
   <![CDATA[
    .fil0 {fill:black}
   ]]>
  </style>
 </defs>
 <g id="Camada_x0020_1">
  <metadata id="CorelCorpID_0Corel-Layer"/>
  <g id="_1534170826784">
   <path class="fil0" d="M153 3845l0 -325 1625 0c19,82 54,230 134,230l918 0c80,0 115,-148 134,-230l1626 0 0 325c0,84 -51,134 -134,134l-4169 0c-84,0 -134,-50 -134,-134zm1798 -325l841 0c-3,35 -12,46 -19,77l-803 0c-8,-32 -15,-40 -19,-77zm-727 -2218c0,-74 15,-184 30,-247 36,-142 88,-283 173,-401 96,-133 150,-186 286,-288 321,-242 757,-262 1121,-110 45,18 57,24 96,47 37,23 55,29 89,55 247,186 385,364 465,682 67,261 30,493 -66,725 -19,44 -25,57 -48,96 -20,32 -34,59 -55,89l-128 158c-489,491 -1309,454 -1751,-148 -131,-177 -212,-433 -212,-658zm-153 -105c0,335 16,467 175,761 19,35 38,61 60,94 43,62 92,117 145,170 217,218 549,380 853,380 317,0 457,-31 724,-175 198,-108 428,-354 519,-561 120,-271 125,-383 125,-669 0,-26 -5,-27 -10,-48l316 0 0 1989 -3213 0 0 -1989 315 0c-5,21 -9,22 -9,48zm38 -201l-421 0c-46,0 -76,30 -76,76l0 2142c0,46 30,77 76,77l3366 0c46,0 77,-31 77,-77l0 -2142c0,-46 -31,-76 -77,-76l-421 0c0,-35 -7,-53 -19,-77 121,0 242,0 364,0 134,0 229,-1 229,134l0 2314 -3672 0 0 -2314c0,-135 95,-134 230,-134 121,0 242,0 363,0 -11,24 -18,42 -19,77zm77 -230c-172,0 -345,2 -517,0 -95,0 -144,17 -194,65 -42,41 -93,95 -93,174l0 2362 -306 0c-46,0 -76,30 -76,77l0 449c0,112 127,239 239,239l4264 0c113,0 239,-127 239,-239l0 -449c0,-47 -30,-77 -76,-77l-306 0 0 -2362c0,-78 -47,-128 -88,-170 -47,-46 -96,-69 -189,-69 -175,1 -351,0 -526,0 -8,-32 -21,-52 -37,-78 -114,-188 -189,-298 -382,-439 -86,-64 -193,-125 -304,-165 -420,-150 -862,-100 -1224,161 -188,136 -272,252 -384,437 -17,28 -32,50 -40,84z"/>
   <path class="fil0" d="M1836 652c100,-53 234,-182 459,-182 0,58 -13,143 76,143 89,0 77,-85 77,-143 224,0 358,129 459,182 -20,29 -121,95 -51,165 70,70 137,-31 165,-51 54,101 182,235 182,459 -58,0 -143,-12 -143,77 0,89 85,76 143,76 0,85 -34,190 -61,255 -53,125 -81,130 -121,204 -28,-19 -95,-121 -165,-51 -70,71 31,137 51,166 -101,53 -235,182 -459,182 0,-59 12,-144 -77,-144 -89,0 -76,85 -76,144 -85,0 -190,-35 -254,-62 -42,-17 -73,-32 -108,-55 -36,-23 -61,-46 -97,-65 19,-29 121,-95 51,-166 -70,-70 -137,32 -166,51 -37,-70 -66,-78 -117,-198 -28,-64 -65,-174 -65,-261 59,0 144,13 144,-76 0,-89 -85,-77 -144,-77 0,-224 129,-358 182,-459 28,19 46,49 72,64 69,39 145,-37 106,-107 -15,-26 -44,-43 -63,-71zm-459 612c0,186 15,305 95,468 104,213 257,365 469,469 644,316 1425,-175 1425,-861 0,-186 -16,-305 -96,-469 -155,-316 -496,-564 -841,-564l-96 0c-501,0 -956,456 -956,957z"/>
   <path class="fil0" d="M2295 843l0 459c0,107 143,76 306,76 102,0 102,-153 0,-153l-153 0 0 -382c0,-103 -153,-103 -153,0z"/>
  </g>
 </g>
</svg>
