<?xml version="1.0" encoding="UTF-8"?>
<!DOCTYPE svg PUBLIC "-//W3C//DTD SVG 1.1//EN" "http://www.w3.org/Graphics/SVG/1.1/DTD/svg11.dtd">
<!-- Creator: CorelDRAW X7 -->
<svg xmlns="http://www.w3.org/2000/svg" xml:space="preserve" width="5000px" height="8767px" version="1.1" style="shape-rendering:geometricPrecision; text-rendering:geometricPrecision; image-rendering:optimizeQuality; fill-rule:evenodd; clip-rule:evenodd"
viewBox="0 0 3809 6679"
 xmlns:xlink="http://www.w3.org/1999/xlink">
 <defs>
  <style type="text/css">
   <![CDATA[
    .fil0 {fill:black}
   ]]>
  </style>
 </defs>
 <g id="Camada_x0020_1">
  <metadata id="CorelCorpID_0Corel-Layer"/>
  <g id="_2223881999248">
   <path class="fil0" d="M183 5962l0 -366 3444 0 0 366c0,305 -230,534 -535,534l-2375 0c-305,0 -534,-229 -534,-534zm0 -5245c0,-314 230,-534 548,-534l2348 0c317,0 548,220 548,534l0 183c-193,0 -301,-29 -301,118 0,103 212,78 301,78l0 4305 -3444 0 0 -4305 2426 0c189,0 154,-196 26,-196l-2452 0 0 -183zm-183 -52l0 5349c0,243 172,490 382,596 59,29 176,69 257,69l2531 0c137,0 295,-75 395,-166 129,-117 244,-279 244,-499l0 -5349c0,-215 -113,-379 -237,-493 -104,-95 -259,-172 -402,-172l-2531 0c-137,0 -295,75 -395,166l-34 31c-106,102 -210,267 -210,468z"/>
   <path class="fil0" d="M2505 4461l-1200 0c-31,0 -66,-34 -66,-65l0 -1122c0,-30 35,-65 66,-65l1200 0c30,0 65,35 65,65l0 1096c0,44 -23,91 -65,91zm-1148 -1891c0,116 172,171 194,-15 11,-97 9,-111 57,-178 215,-298 649,-133 649,180l0 469 -992 0c-92,0 -208,103 -208,235l0 1148c0,127 108,235 234,235l1227 0c126,0 235,-108 235,-235l0 -1148c0,-63 -29,-125 -62,-160 -71,-78 -144,-75 -239,-75 0,-328 48,-608 -146,-818 -211,-229 -580,-233 -796,-7 -78,80 -153,218 -153,369z"/>
   <path class="fil0" d="M1774 6053c0,-188 261,-188 261,0 0,157 -261,157 -261,0zm118 313c429,0 466,-639 -14,-639 -158,0 -302,161 -297,325 4,157 147,314 311,314z"/>
   <path class="fil0" d="M2961 1096l131 0c149,0 149,-196 0,-196l-131 0c-149,0 -149,196 0,196z"/>
   <path class="fil0" d="M1813 4057c0,74 -28,235 92,235 119,0 91,-161 91,-235 0,-99 -183,-99 -183,0z"/>
  </g>
 </g>
</svg>
