<?xml version="1.0" encoding="UTF-8"?>
<!DOCTYPE svg PUBLIC "-//W3C//DTD SVG 1.1//EN" "http://www.w3.org/Graphics/SVG/1.1/DTD/svg11.dtd">
<!-- Creator: CorelDRAW X7 -->
<svg xmlns="http://www.w3.org/2000/svg" xml:space="preserve" width="5000px" height="5334px" version="1.1" style="shape-rendering:geometricPrecision; text-rendering:geometricPrecision; image-rendering:optimizeQuality; fill-rule:evenodd; clip-rule:evenodd"
viewBox="0 0 3995 4262"
 xmlns:xlink="http://www.w3.org/1999/xlink">
 <defs>
  <style type="text/css">
   <![CDATA[
    .fil0 {fill:#333333}
   ]]>
  </style>
 </defs>
 <g id="Camada_x0020_1">
  <metadata id="CorelCorpID_0Corel-Layer"/>
  <path class="fil0" d="M2997 3804l0 208 -1499 0c0,-237 -12,-356 -140,-559 -157,-251 -359,-258 -359,-598l0 -707c0,-95 62,-166 152,-145 97,23 98,103 98,219 0,67 -12,416 13,462 43,77 150,84 205,24 52,-56 31,-228 31,-344 0,-196 -7,-1407 1,-1489 17,-161 221,-166 246,-6 12,77 4,1044 3,1237 -1,194 250,185 250,9l1 -491c17,-164 225,-165 247,-7l1 489c-1,169 168,171 227,93 27,-35 24,-59 23,-118 0,-94 -17,-470 23,-526 44,-62 129,-76 188,-18 53,53 39,136 39,236l0 549c0,57 -6,85 20,122 51,74 165,72 213,-5 32,-51 17,-384 17,-458 -1,-118 -3,-199 91,-226 94,-27 158,47 158,143 0,143 8,934 -10,1063 -48,354 -239,510 -239,843zm-1402 -3804l65 0c110,6 222,41 325,113 25,18 56,43 77,64 81,79 182,245 185,397l259 33c143,16 686,92 774,92 26,0 74,-200 366,-200 174,0 349,176 349,350l0 50c0,174 -175,350 -349,350l-50 0c-157,0 -305,-136 -341,-292 -195,-16 -563,-74 -784,-99 -78,-9 -186,-18 -257,-34 -10,45 -56,130 -83,167 -137,190 -133,34 -133,274 86,-7 140,-43 277,14 41,17 65,39 97,61 107,-71 133,-91 275,-91 147,0 322,142 333,274 97,-22 45,-25 166,-25 174,0 350,176 350,350 0,241 18,1048 -22,1235 -14,68 -28,112 -46,171 -16,55 -34,105 -60,156 -176,353 -98,463 -122,744 -4,52 -54,108 -108,108l-1781 0c-158,0 -97,-258 -113,-370 -14,-96 -14,-123 -44,-198 -104,-258 -451,-389 -451,-739l0 -857c0,-175 176,-350 350,-350 119,0 92,12 150,17l0 -600c-1,-82 -33,-40 -84,-116 -67,35 -390,240 -424,249 54,114 -44,330 -186,406 -76,40 -124,44 -205,44 -175,0 -350,-175 -350,-350l0 -50c0,-174 175,-349 350,-349 128,0 163,14 266,83l312 -188c37,-22 68,-43 104,-62 -28,-120 -33,-90 -33,-233 0,-329 282,-582 596,-599zm-1345 1382c-1,-7 7,-40 9,-49 39,-121 229,-105 238,34 7,102 -121,175 -204,96 -12,-10 -20,-18 -26,-32 -2,-3 -17,-47 -17,-49zm3246 -500c-7,-42 37,-125 118,-131 70,-5 125,54 130,116 10,152 -222,183 -248,15zm-2231 -150c-6,-76 -22,-103 -5,-187 24,-112 94,-193 186,-247 156,-91 358,-39 467,95 105,130 77,226 68,339 -24,-17 -36,-58 -57,-84 -160,-200 -442,-200 -602,0 -21,26 -33,67 -57,84z"/>
 </g>
</svg>
