<?xml version="1.0" encoding="UTF-8"?>
<!DOCTYPE svg PUBLIC "-//W3C//DTD SVG 1.0//EN" "http://www.w3.org/TR/2001/REC-SVG-20010904/DTD/svg10.dtd">
<!-- Creator: CorelDRAW X8 -->
<svg xmlns="http://www.w3.org/2000/svg" xml:space="preserve" width="5000px" height="4670px" version="1.0" style="shape-rendering:geometricPrecision; text-rendering:geometricPrecision; image-rendering:optimizeQuality; fill-rule:evenodd; clip-rule:evenodd"
viewBox="0 0 1274 1190"
 xmlns:xlink="http://www.w3.org/1999/xlink">
 <defs>
  <style type="text/css">
   <![CDATA[
    .fil0 {fill:#FF6D63}
   ]]>
  </style>
 </defs>
 <g id="Camada_x0020_1">
  <metadata id="CorelCorpID_0Corel-Layer"/>
  <g id="_2219949973728">
   <path class="fil0" d="M689 1083l0 0zm-104 0l0 0zm104 0c1,-12 84,-281 96,-315l24 -78c2,-7 7,-20 7,-28l249 0 -34 40c-4,6 -8,8 -13,13 -5,6 -5,8 -11,14 -4,5 -8,7 -12,12l-59 66c-5,6 -5,8 -11,14l-236 262zm-179 -421l254 0 -78 253c-6,18 -10,33 -16,52 -5,17 -11,34 -16,51 -3,11 -14,41 -14,52l-5 0c-1,-13 -85,-277 -93,-305l-32 -103zm75 421c-11,-8 -58,-64 -72,-78l-47 -53c-8,-10 -14,-16 -23,-26 -4,-6 -7,-8 -12,-13 -5,-6 -6,-8 -11,-14l-188 -210c-6,-6 -6,-7 -12,-13 -4,-6 -7,-8 -11,-14l249 0c1,18 125,402 127,421zm378 -650c2,9 76,120 84,133l28 44 -229 0c20,-29 38,-59 58,-89 7,-11 50,-81 59,-88zm-328 3l5 0c1,7 8,16 12,22l70 107c5,8 8,13 13,22 5,8 12,14 14,23l-224 0c2,-9 49,-79 55,-87l41 -63c4,-7 12,-18 14,-24zm-319 -3c3,11 21,35 27,45l85 132 -229 0 57 -90c10,-14 51,-81 60,-87zm485 155c-11,-4 -24,-32 -30,-42 -9,-12 -84,-126 -87,-135l229 0 -112 177zm-440 -177l229 0c-2,8 -110,173 -115,177 -19,-29 -38,-58 -56,-88l-58 -89zm-227 216c0,42 23,52 52,88l31 34c7,6 8,10 15,17 32,32 94,110 125,139 27,27 92,108 123,139l31 36c6,6 10,9 16,16l62 70c25,33 72,31 95,1l170 -191c35,-34 95,-109 123,-138 8,-7 9,-10 15,-17 6,-6 11,-10 16,-17l32 -35c7,-8 8,-11 15,-18 10,-12 22,-23 32,-35 6,-7 8,-10 15,-17 14,-14 38,-40 38,-62 0,-24 -2,-26 -18,-49 -7,-12 -14,-24 -22,-35l-68 -104c-23,-35 -46,-88 -84,-88l-622 0c-33,0 -49,34 -61,53 -33,51 -94,141 -124,190 -4,7 -7,13 -7,23z"/>
   <path class="fil0" d="M612 25l0 162c0,29 52,42 52,-13 0,-26 4,-146 -4,-162 -11,-20 -48,-15 -48,13z"/>
   <path class="fil0" d="M179 202c0,18 30,41 48,59 19,19 44,50 62,50 12,0 25,-13 25,-25 0,-19 -91,-102 -97,-105 -21,-10 -38,10 -38,21z"/>
   <path class="fil0" d="M963 284c0,23 11,27 30,27 10,0 45,-39 54,-48 23,-22 48,-39 48,-61 0,-16 -12,-23 -27,-23 -14,0 -42,34 -57,48 -15,15 -48,43 -48,57z"/>
   <path class="fil0" d="M1200 662c39,0 74,8 74,-27 0,-29 -39,-25 -60,-25 -20,0 -35,3 -40,20 -4,16 8,32 26,32z"/>
   <path class="fil0" d="M0 635l0 0 0 3c0,6 1,12 8,18 12,10 45,6 67,6 29,0 46,-52 -15,-52 -21,0 -60,-4 -60,25z"/>
   <path class="fil0" d="M612 271c0,27 50,43 50,-7 0,-13 -29,-27 -44,-9 -3,4 -6,11 -6,16z"/>
  </g>
 </g>
</svg>
