<?xml version="1.0" encoding="UTF-8"?>
<!DOCTYPE svg PUBLIC "-//W3C//DTD SVG 1.0//EN" "http://www.w3.org/TR/2001/REC-SVG-20010904/DTD/svg10.dtd">
<!-- Creator: CorelDRAW X8 -->
<svg xmlns="http://www.w3.org/2000/svg" xml:space="preserve" width="5001px" height="4187px" version="1.0" style="shape-rendering:geometricPrecision; text-rendering:geometricPrecision; image-rendering:optimizeQuality; fill-rule:evenodd; clip-rule:evenodd"
viewBox="0 0 2183 1828"
 xmlns:xlink="http://www.w3.org/1999/xlink">
 <defs>
  <style type="text/css">
   <![CDATA[
    .fil0 {fill:#000}
   ]]>
  </style>
 </defs>
 <g id="Camada_x0020_1">
  <metadata id="CorelCorpID_0Corel-Layer"/>
  <g id="_2219745175200">
   <path class="fil0" d="M1052 372l0 214 77 0 0 -214c64,0 155,30 199,53 36,18 85,47 114,74 13,13 21,17 34,30 83,83 157,228 157,347l-214 0 0 76 214 0c0,120 -74,264 -157,347 -12,13 -20,16 -32,28 -13,12 -21,17 -36,28 -25,20 -50,34 -80,48 -44,23 -135,53 -199,53l0 -213 -77 0 0 213c-97,0 -243,-61 -312,-127 -13,-12 -22,-17 -34,-30 -13,-12 -16,-20 -28,-32 -68,-71 -129,-214 -129,-315l213 0 0 -76 -213 0c0,-120 73,-264 157,-347 82,-83 227,-157 346,-157zm436 64c13,3 35,13 50,18l139 66c96,54 245,162 306,240 54,71 57,61 119,154 -62,93 -65,83 -119,154 -61,78 -210,186 -306,240 -36,20 -148,74 -189,84 13,-21 26,-23 41,-39 9,-9 9,-13 17,-22 8,-8 14,-13 21,-21l67 -100c40,-79 66,-150 75,-258l231 0c72,1 64,14 64,-64 0,-20 -44,-12 -64,-12l-231 0c-8,-102 -31,-169 -73,-255 -23,-45 -52,-85 -86,-120 -9,-10 -10,-13 -19,-23 -15,-18 -29,-21 -43,-42zm-1016 440l-230 0c-73,0 -64,-14 -64,64 0,21 44,12 64,12l230 0c11,137 65,278 159,375 10,10 10,13 19,23 16,18 30,21 44,42 -41,-10 -154,-64 -189,-84 -97,-54 -246,-162 -306,-240 -19,-25 -41,-49 -63,-74 -21,-25 -39,-53 -57,-80 18,-26 36,-55 57,-80 114,-133 74,-87 205,-205 12,-11 24,-19 39,-29 49,-32 68,-48 125,-80l139 -66c14,-5 37,-15 50,-18 -14,21 -26,23 -42,40l-38 42c-12,14 -24,32 -35,47 -58,86 -97,193 -107,311zm580 -862l0 281c-246,0 -505,95 -704,235 -58,41 -121,93 -171,144 -19,18 -32,35 -50,53 -9,11 -12,17 -23,28 -10,10 -17,20 -25,31 -105,142 -105,114 0,256 29,38 90,109 123,138 11,10 17,12 28,23 19,19 36,33 57,50 50,40 73,53 123,86 12,8 19,12 31,20l104 54c155,69 330,120 507,120l0 281c0,19 20,13 64,13 10,0 13,-3 13,-13l0 -281c125,0 261,-30 357,-62l76 -26c27,-10 50,-21 75,-32l135 -74c90,-59 156,-108 233,-185 41,-41 178,-201 178,-240 0,-42 -159,-226 -204,-266 -11,-9 -16,-11 -27,-23 -31,-30 -108,-89 -146,-115l-99 -59c-155,-92 -406,-156 -578,-156l0 -281c0,-19 -20,-13 -64,-13 -10,0 -13,3 -13,13z"/>
   <path class="fil0" d="M912 927l0 -26c0,-83 83,-166 166,-166l26 0c82,0 166,83 166,166l0 26c0,83 -84,166 -166,166l-26 0c-83,0 -166,-83 -166,-166zm-77 -21c0,288 370,360 488,116 120,-250 -207,-494 -413,-288 -42,43 -75,105 -75,172z"/>
   <path class="fil0" d="M178 1507l0 269c0,33 18,51 51,51l269 0c20,0 12,-26 12,-77l-256 0 0 -256c-50,0 -76,-7 -76,13z"/>
   <path class="fil0" d="M1927 1750l-256 0c0,51 -7,77 13,77l269 0c33,0 51,-18 51,-51l0 -269c0,-20 -26,-13 -77,-13l0 256z"/>
   <path class="fil0" d="M178 52l0 269c0,20 26,13 76,13l0 -256 256 0c0,-51 8,-77 -12,-77l-269 0c-33,0 -51,18 -51,51z"/>
   <path class="fil0" d="M1671 14l0 64 256 0 0 256c51,0 77,7 77,-13l0 -269c0,-33 -18,-51 -51,-51l-269 0c-10,0 -13,3 -13,13z"/>
  </g>
 </g>
</svg>
