<?xml version="1.0" encoding="UTF-8"?>
<!DOCTYPE svg PUBLIC "-//W3C//DTD SVG 1.1//EN" "http://www.w3.org/Graphics/SVG/1.1/DTD/svg11.dtd">
<!-- Creator: CorelDRAW X7 -->
<svg xmlns="http://www.w3.org/2000/svg" xml:space="preserve" width="5000px" height="3346px" version="1.1" style="shape-rendering:geometricPrecision; text-rendering:geometricPrecision; image-rendering:optimizeQuality; fill-rule:evenodd; clip-rule:evenodd"
viewBox="0 0 379 253"
 xmlns:xlink="http://www.w3.org/1999/xlink">
 <defs>
  <style type="text/css">
   <![CDATA[
    .str0 {stroke:white;stroke-width:0.227746}
    .fil2 {fill:#006321}
    .fil0 {fill:#009933}
    .fil1 {fill:#E6E6E6}
    .fil3 {fill:white}
    .fnt0 {font-weight:bold;font-size:51.6138px;font-family:'Arial'}
   ]]>
  </style>
 </defs>
 <g id="Camada_x0020_1">
  <metadata id="CorelCorpID_0Corel-Layer"/>
  <circle class="fil0 str0" cx="127" cy="127" r="127"/>
  <rect class="fil1" x="210" y="110" width="169.111" height="79.829" rx="11" ry="11"/>
  <text x="247" y="168"  class="fil2 fnt0">List</text>
  <g id="_2131623236000">
   <g>
    <path class="fil3" d="M128 184l0 -86c0,-2 2,-3 4,-3l57 0 0 5c0,4 3,6 6,6l5 0 0 78c0,2 -1,3 -3,3l-65 0c-2,0 -4,-1 -4,-3zm64 -87l6 6c-2,0 -4,0 -5,-1 -1,-1 -1,-3 -1,-5zm-67 1l0 86c0,4 3,7 6,7l67 0c3,0 6,-3 6,-7l0 -78c0,-3 -4,-6 -6,-8 -2,-2 -6,-6 -8,-6l-59 0c-3,0 -6,3 -6,6z"/>
    <path class="fil3" d="M146 119c0,0 0,0 -1,-1l-1 -1c-1,-1 -3,0 -3,1 0,1 1,1 1,2 2,1 3,3 4,3 1,0 2,-1 3,-2 0,-1 1,-1 2,-2 0,4 1,7 -2,7l-9 0c-1,0 -2,0 -2,-1l0 -10c0,-1 1,-2 2,-2l9 0c1,0 1,0 2,1l-5 5zm7 -7c0,-1 -2,-2 -3,-2l-11 0c-2,0 -5,2 -5,5l0 9c0,4 3,6 7,6l8 0c7,0 5,-8 5,-14 0,-1 1,-1 3,-3 1,-1 3,-3 2,-4 -1,-3 -5,2 -6,3z"/>
    <path class="fil3" d="M138 148l0 -10c0,-1 0,-2 1,-2l11 0c0,0 1,1 1,1l0 11c0,1 -1,1 -1,1l-11 0c0,0 -1,0 -1,-1zm-4 -10l0 10c0,1 1,3 2,3 1,1 2,2 4,2l9 0c3,0 5,-2 5,-5l0 -11c0,-2 -2,-4 -5,-4l-9 0c-3,0 -6,2 -6,5z"/>
    <path class="fil3" d="M138 171l0 -10c0,-1 1,-2 2,-2l9 0c1,0 2,1 2,2l0 10c0,1 -1,1 -2,1l-9 0c-1,0 -2,0 -2,-1zm-4 -10l0 10c0,1 1,3 2,4 3,2 8,1 12,1 2,0 3,0 4,-1 1,-1 2,-2 2,-4l0 -10c0,-4 -3,-5 -6,-5 -4,0 -9,-1 -12,1 -1,1 -2,2 -2,4z"/>
    <path class="fil3" d="M163 138c0,1 0,2 1,2l28 0c3,0 3,-4 0,-4l-27 0c-1,0 -1,0 -2,1 0,0 0,0 0,1z"/>
    <path class="fil3" d="M163 115c0,0 0,1 1,1l29 0c1,0 1,-3 0,-3l-29 0c-1,0 -1,1 -1,2z"/>
    <path class="fil3" d="M163 161c0,1 0,2 1,2l28 0c3,0 2,-4 1,-4l-29 0c-1,0 -1,1 -1,2z"/>
    <path class="fil3" d="M163 169c0,1 0,2 2,2l16 0c2,0 2,-4 -1,-4l-16 0c-1,0 -1,1 -1,2z"/>
    <path class="fil3" d="M163 123c0,1 0,2 1,2l17 0c2,0 2,-4 -1,-4l-16 0c-1,0 -1,1 -1,2z"/>
    <path class="fil3" d="M163 146c0,1 0,2 1,2l17 0c2,0 2,-4 0,-4l-17 0c-1,0 -1,1 -1,2z"/>
   </g>
   <g id="_2223880051008">
    <path class="fil3" d="M63 123c0,-11 2,-19 8,-28 4,-6 11,-11 18,-15 14,-7 32,-5 45,4 2,2 3,3 5,5l5 0c-9,-10 -22,-17 -36,-17 -27,0 -49,22 -49,49l0 0c0,15 6,21 6,25 0,1 -1,3 -1,4 -1,2 -1,3 -1,5 -2,5 -5,9 -2,13 4,3 8,1 13,-1 4,-1 7,-3 10,-3 2,0 4,1 6,2 10,4 21,5 31,2l0 -4c-4,1 -8,2 -12,2 -17,0 -19,-5 -25,-5 -7,0 -21,9 -21,3 0,-4 7,-15 5,-21 0,-2 -2,-5 -3,-9 -1,-3 -2,-8 -2,-11l0 0z"/>
    <path class="fil3" d="M49 119c0,9 1,16 5,25 1,3 1,1 -2,10 -2,6 -3,10 0,16 2,5 8,9 13,9 5,0 7,-1 11,-2l7 -3c1,0 10,6 23,6 5,0 10,-1 15,-2l0 -4c-1,1 -2,1 -4,1 -7,1 -14,1 -21,0 -2,-1 -5,-1 -6,-2 -8,-3 -4,-3 -15,0 -7,3 -12,5 -18,-1 -6,-6 -3,-13 -1,-19 1,-2 1,-3 2,-5 1,-4 0,-3 -2,-10l-2 -5c-2,-8 -2,-19 1,-27 2,-8 6,-14 11,-20 1,-2 3,-4 5,-6l5 -4c1,-1 0,-3 -1,-3 -2,0 -7,5 -8,6l-4 5c-1,0 -1,0 -1,1 0,0 -1,1 -1,1 -1,1 -1,2 -2,3 -5,8 -10,20 -10,30l0 0z"/>
    <path class="fil3" d="M95 116c0,3 1,4 3,7l4 4c0,1 0,1 1,1 0,0 1,1 1,1 2,2 5,4 8,4 4,0 6,-2 9,-3l0 -4c0,0 -1,0 -1,0 -1,1 -6,4 -8,4 -1,0 -2,-1 -3,-2 0,0 -1,0 -1,0 -2,-2 -9,-8 -9,-11 0,-4 7,-10 4,-16 -1,-3 -3,-4 -5,-6 -2,-3 -3,-4 -8,-4 -2,0 -4,1 -5,3 -4,3 -7,11 -7,17 0,7 1,11 4,17 3,3 7,9 10,12 6,5 14,11 23,11 3,0 5,0 6,0l0 -4c-4,1 -8,1 -12,-1 -10,-3 -23,-15 -26,-26 -2,-5 -2,-9 -1,-14 1,-3 4,-11 9,-11 2,0 4,2 6,3 4,5 5,5 2,11 -1,1 -4,5 -4,7l0 0z"/>
    <path class="fil3" d="M80 71c0,3 4,0 5,0 3,-1 6,-2 10,-3 2,-1 4,-1 7,-2 2,0 3,0 5,0 1,0 2,0 4,0 15,1 27,8 36,17 2,2 4,4 5,6l5 0c-2,-3 -4,-5 -6,-7 -1,-2 -4,-5 -6,-6 -5,-4 -6,-5 -12,-8 -7,-3 -15,-5 -23,-5l-4 0c-8,0 -16,2 -24,5 -1,1 -2,1 -2,3l0 0z"/>
   </g>
  </g>
 </g>
</svg>
