<?xml version="1.0" encoding="UTF-8"?>
<!DOCTYPE svg PUBLIC "-//W3C//DTD SVG 1.1//EN" "http://www.w3.org/Graphics/SVG/1.1/DTD/svg11.dtd">
<!-- Creator: CorelDRAW X7 -->
<svg xmlns="http://www.w3.org/2000/svg" xml:space="preserve" width="5000px" height="5000px" version="1.1" style="shape-rendering:geometricPrecision; text-rendering:geometricPrecision; image-rendering:optimizeQuality; fill-rule:evenodd; clip-rule:evenodd"
viewBox="0 0 4942 4942"
 xmlns:xlink="http://www.w3.org/1999/xlink">
 <defs>
  <style type="text/css">
   <![CDATA[
    .fil0 {fill:black}
   ]]>
  </style>
 </defs>
 <g id="Camada_x0020_1">
  <metadata id="CorelCorpID_0Corel-Layer"/>
  <g id="_2223880051008">
   <path class="fil0" d="M569 2538c0,-468 97,-804 344,-1162 186,-270 454,-481 750,-630 596,-298 1355,-211 1902,167 98,67 168,132 250,214 325,325 557,794 557,1276 0,482 -80,725 -299,1091 -126,212 -309,382 -503,529 -262,198 -692,349 -1032,349 -741,0 -838,-232 -1090,-232 -273,0 -850,385 -850,136 0,-174 276,-636 202,-868 -30,-95 -102,-225 -155,-395 -37,-122 -76,-315 -76,-475zm-154 -67c0,612 251,905 251,1042 0,65 -31,142 -47,194 -19,62 -40,119 -60,181 -75,225 -184,401 -45,550 142,152 336,38 537,-28 178,-60 274,-115 435,-115 52,0 148,53 218,81 1352,544 2823,-463 2823,-1905 0,-1131 -926,-2056 -2056,-2056 -1129,0 -2056,926 -2056,2056z"/>
   <path class="fil0" d="M0 2384c0,398 37,680 187,1038 67,158 62,64 -65,445 -87,260 -148,418 -28,691 89,207 342,374 582,374 191,0 290,-53 452,-107l297 -100c59,-13 432,217 969,217 354,0 673,-39 987,-171l232 -106c73,-41 379,-209 388,-286 5,-43 -33,-80 -73,-80 -39,0 -211,135 -315,192 -79,43 -133,71 -219,109 -156,70 -345,128 -519,157 -320,54 -589,48 -913,-20 -83,-18 -185,-47 -263,-75 -333,-122 -147,-137 -624,23 -272,90 -503,185 -749,-59 -260,-258 -117,-539 -30,-798 24,-74 46,-141 70,-210 59,-175 -18,-138 -98,-412l-63 -226c-91,-364 -71,-793 33,-1150 102,-350 237,-577 449,-844 67,-86 143,-160 223,-231l206 -170c67,-53 26,-141 -45,-141 -55,0 -275,215 -314,245l-181 196c-19,23 -26,28 -44,53 -15,20 -25,34 -42,54 -27,32 -52,72 -76,107 -236,337 -414,857 -414,1285z"/>
   <path class="fil0" d="M1950 2249c0,146 25,174 109,287l158 189c21,21 27,20 48,38 18,15 27,27 44,43 81,75 227,186 336,186 162,0 242,-86 402,-167 192,-99 236,-30 382,116 87,88 282,252 61,423 -265,206 -621,282 -951,177 -459,-146 -983,-668 -1134,-1124 -61,-185 -69,-377 -21,-569 39,-151 175,-497 373,-497 107,0 185,103 243,162 184,184 213,215 85,437 -42,73 -135,228 -135,299zm-744 -213c0,299 38,463 195,723 87,142 274,388 397,491 279,233 591,485 991,485 266,0 418,-27 640,-151 64,-36 149,-92 198,-141 81,-79 108,-153 108,-277 0,-143 -88,-218 -162,-292 -158,-158 -309,-351 -600,-181 -46,27 -255,154 -309,154 -51,0 -103,-37 -139,-63 -19,-14 -29,-19 -46,-32 -101,-79 -385,-344 -385,-465 0,-151 309,-402 190,-663 -49,-109 -132,-172 -211,-251 -112,-112 -155,-167 -336,-167 -99,0 -182,52 -234,104 -154,155 -297,480 -297,726z"/>
   <path class="fil0" d="M1293 338c0,152 193,29 206,22 136,-63 278,-110 423,-146 112,-28 198,-36 323,-54 57,-8 115,-3 172,-11 79,-12 115,4 179,6 630,15 1157,316 1552,706 168,166 361,464 450,679 20,48 36,85 53,131 59,163 132,447 136,616 6,228 21,204 -11,472 -29,233 -110,515 -211,716 -83,165 -240,422 -374,552 -46,46 -140,135 -46,187 73,41 168,-96 211,-148 336,-399 586,-946 586,-1508 0,-618 -107,-944 -383,-1413 -97,-164 -168,-220 -266,-342 -46,-59 -174,-181 -230,-224 -214,-165 -283,-224 -547,-351 -296,-142 -628,-218 -963,-228l-152 0c-352,10 -702,93 -1015,248 -36,18 -93,41 -93,90z"/>
  </g>
 </g>
</svg>
